<svg width="342" height="245" viewBox="0 0 342 245" fill="none" xmlns="http://www.w3.org/2000/svg">
<g clip-path="url(#clip0_926_9020)">
<path d="M339.18 81.8375L307.835 80.1947C306.278 80.113 304.949 81.3093 304.867 82.8667L301.704 143.234C301.622 144.791 302.819 146.12 304.376 146.201L335.721 147.844C337.279 147.926 338.607 146.729 338.689 145.172L341.852 84.805C341.934 83.2477 340.738 81.9191 339.18 81.8375Z" fill="white"/>
<path d="M309.508 81.4236C308.603 81.3775 307.716 81.6921 307.043 82.2985C306.369 82.905 305.964 83.7537 305.915 84.6587L302.933 141.561C302.887 142.466 303.201 143.352 303.808 144.026C304.414 144.699 305.263 145.105 306.168 145.154L334.047 146.615C334.952 146.661 335.839 146.346 336.512 145.74C337.186 145.134 337.591 144.285 337.64 143.38L340.622 86.4777C340.668 85.5726 340.354 84.6861 339.747 84.0126C339.141 83.3391 338.292 82.9335 337.387 82.8847L309.508 81.4236ZM309.567 80.2854L337.447 81.7466C338.654 81.8099 339.787 82.3502 340.596 83.2486C341.405 84.1471 341.823 85.3301 341.76 86.5374L338.778 143.439C338.715 144.647 338.175 145.78 337.276 146.588C336.378 147.397 335.195 147.816 333.988 147.753L306.108 146.292C304.901 146.229 303.768 145.688 302.959 144.79C302.15 143.891 301.731 142.708 301.795 141.501L304.777 84.5991C304.84 83.3917 305.38 82.259 306.279 81.4501C307.177 80.6411 308.36 80.2222 309.567 80.2854Z" fill="#090814"/>
<path d="M317.249 112.512L313.543 112.318C313.492 112.319 313.442 112.309 313.395 112.289C313.349 112.269 313.307 112.24 313.271 112.204C313.236 112.167 313.209 112.124 313.192 112.076C313.174 112.029 313.166 111.978 313.169 111.927C313.171 111.877 313.184 111.827 313.207 111.782C313.229 111.736 313.261 111.696 313.3 111.663C313.338 111.631 313.383 111.606 313.432 111.592C313.48 111.577 313.531 111.572 313.582 111.578L317.288 111.772C317.382 111.783 317.468 111.829 317.529 111.901C317.591 111.973 317.622 112.066 317.617 112.161C317.612 112.255 317.571 112.344 317.503 112.409C317.435 112.475 317.344 112.512 317.249 112.512Z" fill="#6C63FF"/>
<path d="M323.921 112.862L320.215 112.668C320.121 112.657 320.035 112.611 319.974 112.539C319.913 112.466 319.882 112.374 319.886 112.279C319.891 112.185 319.932 112.096 320 112.031C320.069 111.965 320.159 111.928 320.254 111.927L323.96 112.122C324.054 112.132 324.14 112.179 324.201 112.251C324.263 112.323 324.294 112.416 324.289 112.51C324.284 112.604 324.243 112.693 324.175 112.759C324.107 112.824 324.016 112.861 323.921 112.862Z" fill="#6C63FF"/>
<path d="M327.102 116.003L323.396 115.809C323.302 115.798 323.215 115.752 323.154 115.68C323.093 115.608 323.062 115.515 323.067 115.421C323.072 115.326 323.113 115.238 323.181 115.172C323.249 115.107 323.34 115.07 323.434 115.069L327.141 115.263C327.235 115.274 327.321 115.32 327.382 115.392C327.443 115.465 327.474 115.557 327.469 115.652C327.464 115.746 327.424 115.835 327.355 115.9C327.287 115.966 327.197 116.003 327.102 116.003Z" fill="#6C63FF"/>
<path d="M320.451 115.654L313.388 115.284C313.337 115.284 313.287 115.275 313.24 115.255C313.193 115.235 313.151 115.206 313.116 115.17C313.081 115.133 313.054 115.09 313.036 115.042C313.018 114.994 313.011 114.944 313.013 114.893C313.016 114.843 313.029 114.793 313.051 114.748C313.074 114.702 313.106 114.662 313.144 114.629C313.183 114.596 313.228 114.572 313.276 114.557C313.325 114.543 313.376 114.538 313.426 114.544L320.49 114.914C320.583 114.925 320.67 114.971 320.731 115.043C320.792 115.115 320.823 115.208 320.818 115.302C320.813 115.397 320.772 115.486 320.704 115.551C320.636 115.616 320.545 115.653 320.451 115.654Z" fill="#6C63FF"/>
<path d="M333.95 113.388L326.887 113.017C326.837 113.018 326.786 113.008 326.74 112.988C326.693 112.969 326.651 112.94 326.616 112.903C326.581 112.866 326.554 112.823 326.536 112.775C326.518 112.728 326.511 112.677 326.513 112.627C326.516 112.576 326.529 112.526 326.551 112.481C326.574 112.436 326.605 112.395 326.644 112.363C326.683 112.33 326.728 112.305 326.776 112.291C326.825 112.276 326.876 112.271 326.926 112.277L333.989 112.647C334.04 112.647 334.09 112.657 334.137 112.677C334.184 112.696 334.226 112.725 334.261 112.762C334.296 112.798 334.323 112.842 334.341 112.889C334.359 112.937 334.366 112.988 334.364 113.038C334.361 113.089 334.348 113.138 334.326 113.184C334.303 113.229 334.271 113.269 334.233 113.302C334.194 113.335 334.149 113.359 334.101 113.374C334.052 113.389 334.001 113.393 333.95 113.388Z" fill="#6C63FF"/>
<path d="M320.081 107.029L313.019 106.659C312.968 106.659 312.918 106.65 312.871 106.63C312.824 106.61 312.782 106.581 312.747 106.545C312.712 106.508 312.685 106.465 312.667 106.417C312.649 106.369 312.642 106.319 312.644 106.268C312.647 106.218 312.66 106.168 312.682 106.123C312.705 106.077 312.737 106.037 312.775 106.004C312.814 105.971 312.859 105.947 312.907 105.932C312.956 105.918 313.007 105.913 313.057 105.919L320.121 106.289C320.214 106.3 320.301 106.346 320.362 106.418C320.423 106.49 320.454 106.583 320.449 106.677C320.444 106.772 320.403 106.861 320.335 106.926C320.267 106.991 320.176 107.028 320.081 107.029Z" fill="#6C63FF"/>
<path d="M320.549 109.227C320.479 109.224 320.412 109.199 320.358 109.156C320.303 109.113 320.263 109.053 320.244 108.986C320.225 108.919 320.227 108.848 320.251 108.783C320.275 108.717 320.318 108.66 320.376 108.621L322.26 107.312C322.335 107.259 322.399 107.191 322.447 107.113C322.495 107.034 322.527 106.946 322.539 106.855C322.551 106.763 322.545 106.67 322.519 106.582C322.494 106.493 322.45 106.411 322.391 106.34L320.958 104.616C320.93 104.582 320.909 104.543 320.896 104.502C320.883 104.46 320.878 104.416 320.882 104.372C320.886 104.329 320.898 104.287 320.919 104.248C320.939 104.209 320.967 104.175 321 104.147C321.034 104.119 321.073 104.098 321.114 104.085C321.156 104.072 321.2 104.067 321.244 104.071C321.287 104.075 321.329 104.088 321.368 104.108C321.407 104.128 321.441 104.156 321.469 104.19L323.597 106.75C323.626 106.785 323.648 106.826 323.661 106.871C323.673 106.915 323.677 106.961 323.671 107.007C323.664 107.053 323.649 107.096 323.625 107.136C323.601 107.175 323.569 107.209 323.531 107.235L320.756 109.168C320.695 109.211 320.622 109.232 320.549 109.228L320.549 109.227Z" fill="#6C63FF"/>
<path d="M312.547 108.808C312.616 108.811 312.685 108.793 312.743 108.756C312.802 108.719 312.847 108.664 312.873 108.6C312.899 108.536 312.904 108.465 312.888 108.398C312.872 108.33 312.835 108.27 312.782 108.224L311.047 106.724C310.977 106.663 310.921 106.589 310.881 106.506C310.842 106.423 310.82 106.332 310.817 106.24C310.814 106.148 310.831 106.056 310.865 105.971C310.9 105.885 310.952 105.808 311.018 105.743L312.622 104.178C312.685 104.116 312.721 104.032 312.723 103.944C312.724 103.856 312.69 103.771 312.629 103.708C312.567 103.644 312.483 103.608 312.395 103.607C312.307 103.606 312.221 103.639 312.158 103.701L309.775 106.025C309.743 106.057 309.717 106.095 309.699 106.138C309.682 106.181 309.674 106.227 309.675 106.273C309.677 106.319 309.688 106.364 309.707 106.406C309.727 106.447 309.755 106.484 309.79 106.514L312.347 108.726C312.403 108.774 312.473 108.803 312.547 108.807L312.547 108.808Z" fill="#6C63FF"/>
<path d="M322.95 122.159L315.887 121.789C315.836 121.789 315.786 121.779 315.74 121.76C315.693 121.74 315.651 121.711 315.616 121.674C315.581 121.638 315.553 121.594 315.536 121.547C315.518 121.499 315.51 121.449 315.513 121.398C315.516 121.348 315.529 121.298 315.551 121.253C315.574 121.207 315.605 121.167 315.644 121.134C315.683 121.101 315.728 121.077 315.776 121.062C315.825 121.048 315.876 121.043 315.926 121.049L322.989 121.419C323.083 121.43 323.169 121.476 323.23 121.548C323.291 121.62 323.323 121.713 323.318 121.807C323.313 121.902 323.272 121.991 323.204 122.056C323.136 122.121 323.045 122.158 322.95 122.159Z" fill="#6C63FF"/>
<path d="M324.099 124.06C324.029 124.057 323.963 124.032 323.908 123.988C323.854 123.945 323.815 123.886 323.796 123.819C323.776 123.753 323.779 123.681 323.802 123.616C323.825 123.551 323.869 123.494 323.926 123.455L325.81 122.144C325.885 122.092 325.949 122.024 325.997 121.945C326.045 121.867 326.076 121.779 326.089 121.687C326.101 121.596 326.094 121.503 326.069 121.415C326.044 121.326 326 121.244 325.941 121.173L324.508 119.449C324.452 119.382 324.424 119.294 324.432 119.206C324.44 119.119 324.483 119.037 324.551 118.981C324.618 118.924 324.706 118.897 324.794 118.905C324.881 118.913 324.962 118.956 325.019 119.023L327.145 121.583C327.174 121.618 327.196 121.659 327.209 121.703C327.221 121.748 327.225 121.794 327.218 121.84C327.212 121.885 327.197 121.929 327.173 121.969C327.149 122.008 327.117 122.042 327.079 122.068L324.305 124C324.244 124.043 324.171 124.064 324.098 124.06L324.099 124.06Z" fill="#6C63FF"/>
<path d="M311.781 123.415C311.85 123.418 311.918 123.4 311.977 123.363C312.035 123.326 312.081 123.271 312.106 123.207C312.132 123.143 312.138 123.072 312.121 123.005C312.105 122.937 312.068 122.877 312.016 122.831L310.281 121.331C310.212 121.27 310.155 121.196 310.116 121.113C310.076 121.03 310.054 120.939 310.052 120.847C310.049 120.755 310.065 120.663 310.1 120.578C310.134 120.492 310.186 120.415 310.252 120.35L311.857 118.785C311.888 118.755 311.913 118.719 311.93 118.679C311.948 118.638 311.957 118.595 311.958 118.552C311.958 118.508 311.95 118.465 311.934 118.424C311.918 118.383 311.894 118.346 311.863 118.315C311.833 118.284 311.797 118.259 311.757 118.241C311.716 118.224 311.673 118.215 311.63 118.214C311.586 118.214 311.543 118.222 311.502 118.238C311.461 118.254 311.424 118.278 311.393 118.308L309.011 120.632C308.978 120.665 308.952 120.703 308.935 120.746C308.917 120.789 308.909 120.834 308.91 120.88C308.912 120.926 308.923 120.972 308.943 121.013C308.962 121.055 308.991 121.092 309.025 121.122L311.582 123.334C311.638 123.382 311.708 123.411 311.782 123.415L311.781 123.415Z" fill="#6C63FF"/>
<path d="M312.466 122.409L314.129 119.09C314.175 119.005 314.252 118.941 314.344 118.912C314.436 118.883 314.535 118.891 314.622 118.934C314.708 118.978 314.774 119.053 314.806 119.144C314.838 119.235 314.833 119.335 314.792 119.422L313.129 122.741C313.084 122.826 313.007 122.89 312.915 122.919C312.822 122.948 312.723 122.94 312.637 122.897C312.55 122.854 312.484 122.778 312.452 122.687C312.421 122.596 312.426 122.496 312.466 122.409Z" fill="#6C63FF"/>
<path d="M166.047 217.255L101.004 225.182L108.495 202.709L164.944 200.914C167.638 197.733 171.947 195.517 176.933 195.18C185.656 194.591 193.123 199.966 193.611 207.185C194.099 214.405 187.422 220.735 178.698 221.325C173.712 221.662 169.144 220.045 166.047 217.255Z" fill="#ED9DA0"/>
<path d="M119.222 127.271L123.552 186.998L145.065 201.592L140.382 218.447L81.415 225.39L103.362 131.283L114.621 124.824C115.072 124.565 115.582 124.425 116.103 124.416C116.623 124.408 117.137 124.532 117.597 124.776C118.057 125.021 118.447 125.378 118.731 125.814C119.015 126.251 119.183 126.752 119.221 127.271L119.222 127.271Z" fill="#E6E6E6"/>
<path d="M89.7131 51.7746C91.8876 46.347 95.5237 41.6282 100.218 38.1423C104.912 34.6564 110.48 32.5396 116.304 32.0271C122.129 31.5145 127.981 32.6263 133.212 35.2388C138.442 37.8514 142.847 41.8626 145.936 46.827C149.025 51.7914 150.677 57.5148 150.71 63.3618C150.743 69.2087 149.155 74.9504 146.122 79.9494C143.09 84.9483 138.731 89.0089 133.53 91.6802C128.329 94.3516 122.489 95.5292 116.66 95.0824L95.9619 130.331L76.6754 94.6232C76.6754 94.6232 86.1159 89.1619 93.0639 81.5229C90.0897 77.2275 88.2269 72.2618 87.6421 67.07C87.0573 61.8783 87.7689 56.6225 89.7131 51.7732V51.7746Z" fill="#ED9DA0"/>
<path d="M110.957 114.374L75.3759 75.9825C75.3759 75.9825 61.3306 69.4278 56.6488 90.0284C56.6488 90.0284 31.7725 98.9229 22.9076 128.42C14.0428 157.918 0 245 0 245L107.68 239.382L118.813 129.751C119.123 126.703 118.546 123.631 117.152 120.904C115.759 118.176 113.607 115.909 110.957 114.374L110.957 114.374Z" fill="#E6E6E6"/>
<path d="M94.0937 128.438C93.835 124.536 92.0258 120.129 88.7167 115.34C86.0576 111.493 82.4315 107.394 77.9392 103.16C73.124 98.6526 67.9933 94.4941 62.5863 90.7165L62.8838 90.2764C62.9029 90.2894 64.8278 91.5936 67.6764 93.7749C70.3044 95.7867 74.2807 98.982 78.3 102.769C82.8204 107.029 86.4719 111.156 89.1532 115.035C92.5192 119.906 94.3602 124.403 94.6238 128.402L94.0937 128.438Z" fill="#D6D6E3"/>
<path d="M215.827 181.794C215.827 181.794 215.563 181.614 211.145 169.621L168.014 198.638L181.184 209.884L215.827 181.794Z" fill="#090814"/>
<path d="M213.844 182.389C213.844 182.389 213.608 182.23 209.663 171.618L171.149 197.293L182.908 207.247L213.844 182.389Z" fill="#134CC7"/>
<path d="M161.956 219.749L96.9116 227.677L104.402 205.204L160.852 203.41C163.545 200.228 167.855 198.012 172.84 197.675C181.564 197.086 189.031 202.461 189.519 209.681C190.007 216.9 183.33 223.23 174.606 223.819C169.621 224.156 165.052 222.539 161.956 219.749H161.956Z" fill="#ED9DA0"/>
<path d="M81.462 189.753V133.482C81.462 133.482 67.5773 85.4604 31.9158 109.984C31.9158 109.984 42.1355 225.702 59.9262 230.669C77.7169 235.636 102.998 228.145 102.998 228.145L111.628 200.505L81.462 189.753Z" fill="#E6E6E6"/>
<path d="M74.1036 232.635C68.7149 232.635 63.9216 232.059 59.855 230.924C58.7256 230.608 57.5905 229.852 56.4865 228.676C55.2681 227.314 54.2247 225.804 53.3806 224.183C51.4931 220.717 49.6116 215.875 47.789 209.792C44.7247 199.564 41.7632 185.674 38.9866 168.505C37.6236 160.077 35.5698 146.238 33.5259 128.171C32.3037 117.367 31.6553 110.079 31.6504 110.007L32.1798 109.96C32.1862 110.031 32.8324 117.316 34.0543 128.115C35.1816 138.081 37.0437 153.164 39.5114 168.422C42.2849 185.568 45.2411 199.436 48.299 209.64C50.1113 215.688 51.9784 220.495 53.8483 223.929C55.8794 227.659 57.9484 229.84 59.9976 230.412C64.032 231.539 68.7971 232.106 74.1614 232.103C78.8263 232.072 83.4829 231.705 88.0952 231.006C93.0987 230.282 98.0512 229.241 102.923 227.889L103.073 228.398C98.1776 229.758 93.2004 230.804 88.1718 231.531C83.5337 232.234 78.851 232.603 74.16 232.635L74.1036 232.635Z" fill="#D6D6E3"/>
<path d="M111.539 200.755L81.1963 189.94V133.48H81.7257V189.565L111.715 200.254L111.539 200.755Z" fill="#D6D6E3"/>
<path d="M113.132 58.2074C115.961 60.5326 120.254 58.8296 123.15 56.5949C126.045 54.3601 128.986 51.479 132.646 51.5794C137.647 51.7159 140.71 57.2263 145.336 59.131C150.561 61.2796 156.759 58.196 159.988 53.562C163.218 48.928 164.191 43.1362 165.08 37.5566L161.001 42.632C162.25 40.8286 163.015 38.735 163.223 36.5515C163.431 34.368 163.075 32.1676 162.19 30.1608L158.004 38.7314C158.518 37.5098 158.787 36.1985 158.793 34.8729C158.8 33.5473 158.544 32.2335 158.042 31.0068C157.54 29.7801 156.8 28.6647 155.865 27.7246C154.931 26.7846 153.82 26.0383 152.596 25.5286L149.733 30.4042C144.822 26.1706 139.484 22.4598 133.805 19.332C128.026 16.406 121.433 14.6942 115.034 15.7049C105.465 17.2271 97.6509 24.6791 93.294 33.3413C88.9371 42.0035 87.5159 51.7956 86.3905 61.4253C86.1077 63.847 86.016 66.7216 87.9194 68.2418C88.8428 68.8373 89.9382 69.1083 91.0327 69.0121C92.1272 68.916 93.1585 68.458 93.9639 67.7105C95.538 66.1746 96.7044 64.2704 97.3577 62.1703C98.5587 59.0918 99.6695 55.8614 101.882 53.3993C104.095 50.9371 107.793 49.4529 110.79 50.8534C113.788 52.2539 114.647 57.2233 113.132 58.2074Z" fill="#090814"/>
<path d="M226.91 41.5635H313.516C313.815 41.5634 314.112 41.6223 314.388 41.7368C314.665 41.8512 314.916 42.0191 315.128 42.2307C315.34 42.4424 315.507 42.6937 315.622 42.9702C315.737 43.2468 315.796 43.5432 315.796 43.8425V90.5666C315.796 91.171 315.555 91.7507 315.128 92.1781C314.701 92.6055 314.121 92.8456 313.517 92.8456H226.91C226.305 92.8456 225.726 92.6055 225.298 92.1781C224.871 91.7507 224.631 91.171 224.631 90.5666V43.8425C224.631 43.2381 224.871 42.6584 225.298 42.231C225.726 41.8036 226.305 41.5635 226.91 41.5635Z" fill="#134CC7"/>
<path d="M241.442 50.1445H238.65C238.346 50.1445 238.099 50.3912 238.099 50.6955V51.6312C238.099 51.9355 238.346 52.1822 238.65 52.1822H241.442C241.746 52.1822 241.993 51.9355 241.993 51.6312V50.6955C241.993 50.3912 241.746 50.1445 241.442 50.1445Z" fill="white"/>
<path d="M265.146 50.1445H262.354C262.05 50.1445 261.803 50.3912 261.803 50.6955V51.6312C261.803 51.9355 262.05 52.1822 262.354 52.1822H265.146C265.45 52.1822 265.697 51.9355 265.697 51.6312V50.6955C265.697 50.3912 265.45 50.1445 265.146 50.1445Z" fill="white"/>
<path d="M271.86 50.1445H269.069C268.765 50.1445 268.518 50.3912 268.518 50.6955V51.6312C268.518 51.9355 268.765 52.1822 269.069 52.1822H271.86C272.165 52.1822 272.411 51.9355 272.411 51.6312V50.6955C272.411 50.3912 272.165 50.1445 271.86 50.1445Z" fill="white"/>
<path d="M256.894 49.9736H244.424C244.12 49.9736 243.873 50.2203 243.873 50.5246V51.4603C243.873 51.7646 244.12 52.0113 244.424 52.0113H256.894C257.198 52.0113 257.445 51.7646 257.445 51.4603V50.5246C257.445 50.2203 257.198 49.9736 256.894 49.9736Z" fill="white"/>
<path d="M290.02 49.9736H277.55C277.246 49.9736 276.999 50.2203 276.999 50.5246V51.4603C276.999 51.7646 277.246 52.0113 277.55 52.0113H290.02C290.324 52.0113 290.571 51.7646 290.571 51.4603V50.5246C290.571 50.2203 290.324 49.9736 290.02 49.9736Z" fill="white"/>
<path d="M247.102 54.7422H244.31C244.006 54.7422 243.76 54.9889 243.76 55.2932V56.2288C243.76 56.5331 244.006 56.7798 244.31 56.7798H247.102C247.406 56.7798 247.653 56.5331 247.653 56.2288V55.2932C247.653 54.9889 247.406 54.7422 247.102 54.7422Z" fill="white"/>
<path d="M271.465 54.7422H268.674C268.37 54.7422 268.123 54.9889 268.123 55.2932V56.2288C268.123 56.5331 268.37 56.7798 268.674 56.7798H271.465C271.77 56.7798 272.016 56.5331 272.016 56.2288V55.2932C272.016 54.9889 271.77 54.7422 271.465 54.7422Z" fill="white"/>
<path d="M278.183 54.7422H275.391C275.087 54.7422 274.84 54.9889 274.84 55.2932V56.2288C274.84 56.5331 275.087 56.7798 275.391 56.7798H278.183C278.487 56.7798 278.734 56.5331 278.734 56.2288V55.2932C278.734 54.9889 278.487 54.7422 278.183 54.7422Z" fill="white"/>
<path d="M264.173 54.5732H251.703C251.399 54.5732 251.152 54.8199 251.152 55.1242V56.0599C251.152 56.3642 251.399 56.6109 251.703 56.6109H264.173C264.477 56.6109 264.724 56.3642 264.724 56.0599V55.1242C264.724 54.8199 264.477 54.5732 264.173 54.5732Z" fill="white"/>
<path d="M297.282 54.5732H284.812C284.508 54.5732 284.261 54.8199 284.261 55.1242V56.0599C284.261 56.3642 284.508 56.6109 284.812 56.6109H297.282C297.586 56.6109 297.833 56.3642 297.833 56.0599V55.1242C297.833 54.8199 297.586 54.5732 297.282 54.5732Z" fill="white"/>
<path d="M254.084 59.3418H251.292C250.988 59.3418 250.741 59.5885 250.741 59.8928V60.8285C250.741 61.1327 250.988 61.3794 251.292 61.3794H254.084C254.388 61.3794 254.635 61.1327 254.635 60.8285V59.8928C254.635 59.5885 254.388 59.3418 254.084 59.3418Z" fill="white"/>
<path d="M277.785 59.3418H274.994C274.69 59.3418 274.443 59.5885 274.443 59.8928V60.8285C274.443 61.1327 274.69 61.3794 274.994 61.3794H277.785C278.09 61.3794 278.336 61.1327 278.336 60.8285V59.8928C278.336 59.5885 278.09 59.3418 277.785 59.3418Z" fill="white"/>
<path d="M284.501 59.3418H281.71C281.406 59.3418 281.159 59.5885 281.159 59.8928V60.8285C281.159 61.1327 281.406 61.3794 281.71 61.3794H284.501C284.806 61.3794 285.052 61.1327 285.052 60.8285V59.8928C285.052 59.5885 284.806 59.3418 284.501 59.3418Z" fill="white"/>
<path d="M270.635 59.1719H258.165C257.861 59.1719 257.614 59.4186 257.614 59.7228V60.6585C257.614 60.9628 257.861 61.2095 258.165 61.2095H270.635C270.939 61.2095 271.186 60.9628 271.186 60.6585V59.7228C271.186 59.4186 270.939 59.1719 270.635 59.1719Z" fill="white"/>
<path d="M302.943 59.1719H290.473C290.169 59.1719 289.922 59.4186 289.922 59.7228V60.6585C289.922 60.9628 290.169 61.2095 290.473 61.2095H302.943C303.247 61.2095 303.494 60.9628 303.494 60.6585V59.7228C303.494 59.4186 303.247 59.1719 302.943 59.1719Z" fill="white"/>
<path d="M260.404 63.9404H257.612C257.308 63.9404 257.061 64.1871 257.061 64.4914V65.4271C257.061 65.7314 257.308 65.978 257.612 65.978H260.404C260.708 65.978 260.954 65.7314 260.954 65.4271V64.4914C260.954 64.1871 260.708 63.9404 260.404 63.9404Z" fill="white"/>
<path d="M284.106 63.9404H281.315C281.01 63.9404 280.764 64.1871 280.764 64.4914V65.4271C280.764 65.7314 281.01 65.978 281.315 65.978H284.106C284.41 65.978 284.657 65.7314 284.657 65.4271V64.4914C284.657 64.1871 284.41 63.9404 284.106 63.9404Z" fill="white"/>
<path d="M290.822 63.9404H288.031C287.727 63.9404 287.48 64.1871 287.48 64.4914V65.4271C287.48 65.7314 287.727 65.978 288.031 65.978H290.822C291.126 65.978 291.373 65.7314 291.373 65.4271V64.4914C291.373 64.1871 291.126 63.9404 290.822 63.9404Z" fill="white"/>
<path d="M277.096 63.7705H264.627C264.322 63.7705 264.076 64.0172 264.076 64.3215V65.2572C264.076 65.5615 264.322 65.8081 264.627 65.8081H277.096C277.401 65.8081 277.647 65.5615 277.647 65.2572V64.3215C277.647 64.0172 277.401 63.7705 277.096 63.7705Z" fill="white"/>
<path d="M265.146 82.2275H262.354C262.05 82.2275 261.803 82.4742 261.803 82.7785V83.7142C261.803 84.0185 262.05 84.2652 262.354 84.2652H265.146C265.45 84.2652 265.697 84.0185 265.697 83.7142V82.7785C265.697 82.4742 265.45 82.2275 265.146 82.2275Z" fill="white"/>
<path d="M271.86 82.2275H269.069C268.765 82.2275 268.518 82.4742 268.518 82.7785V83.7142C268.518 84.0185 268.765 84.2652 269.069 84.2652H271.86C272.165 84.2652 272.411 84.0185 272.411 83.7142V82.7785C272.411 82.4742 272.165 82.2275 271.86 82.2275Z" fill="white"/>
<path d="M290.02 82.3975H277.55C277.246 82.3975 276.999 82.6441 276.999 82.9484V83.8841C276.999 84.1884 277.246 84.4351 277.55 84.4351H290.02C290.324 84.4351 290.571 84.1884 290.571 83.8841V82.9484C290.571 82.6441 290.324 82.3975 290.02 82.3975Z" fill="white"/>
<path d="M241.442 82.2275H238.65C238.346 82.2275 238.099 82.4742 238.099 82.7785V83.7142C238.099 84.0185 238.346 84.2652 238.65 84.2652H241.442C241.746 84.2652 241.993 84.0185 241.993 83.7142V82.7785C241.993 82.4742 241.746 82.2275 241.442 82.2275Z" fill="white"/>
<path d="M256.894 82.3975H244.424C244.12 82.3975 243.873 82.6441 243.873 82.9484V83.8841C243.873 84.1884 244.12 84.4351 244.424 84.4351H256.894C257.198 84.4351 257.445 84.1884 257.445 83.8841V82.9484C257.445 82.6441 257.198 82.3975 256.894 82.3975Z" fill="white"/>
<path d="M247.102 77.6289H244.31C244.006 77.6289 243.76 77.8756 243.76 78.1799V79.1156C243.76 79.4198 244.006 79.6665 244.31 79.6665H247.102C247.406 79.6665 247.653 79.4198 247.653 79.1156V78.1799C247.653 77.8756 247.406 77.6289 247.102 77.6289Z" fill="white"/>
<path d="M271.465 77.6289H268.674C268.37 77.6289 268.123 77.8756 268.123 78.1799V79.1156C268.123 79.4198 268.37 79.6665 268.674 79.6665H271.465C271.77 79.6665 272.016 79.4198 272.016 79.1156V78.1799C272.016 77.8756 271.77 77.6289 271.465 77.6289Z" fill="white"/>
<path d="M278.183 77.6289H275.391C275.087 77.6289 274.84 77.8756 274.84 78.1799V79.1156C274.84 79.4198 275.087 79.6665 275.391 79.6665H278.183C278.487 79.6665 278.734 79.4198 278.734 79.1156V78.1799C278.734 77.8756 278.487 77.6289 278.183 77.6289Z" fill="white"/>
<path d="M264.173 77.7988H251.703C251.399 77.7988 251.152 78.0455 251.152 78.3498V79.2855C251.152 79.5898 251.399 79.8364 251.703 79.8364H264.173C264.477 79.8364 264.724 79.5898 264.724 79.2855V78.3498C264.724 78.0455 264.477 77.7988 264.173 77.7988Z" fill="white"/>
<path d="M254.084 73.0303H251.292C250.988 73.0303 250.741 73.2769 250.741 73.5812V74.5169C250.741 74.8212 250.988 75.0679 251.292 75.0679H254.084C254.388 75.0679 254.635 74.8212 254.635 74.5169V73.5812C254.635 73.2769 254.388 73.0303 254.084 73.0303Z" fill="white"/>
<path d="M277.785 73.0303H274.994C274.69 73.0303 274.443 73.2769 274.443 73.5812V74.5169C274.443 74.8212 274.69 75.0679 274.994 75.0679H277.785C278.09 75.0679 278.336 74.8212 278.336 74.5169V73.5812C278.336 73.2769 278.09 73.0303 277.785 73.0303Z" fill="white"/>
<path d="M284.501 73.0303H281.71C281.406 73.0303 281.159 73.2769 281.159 73.5812V74.5169C281.159 74.8212 281.406 75.0679 281.71 75.0679H284.501C284.806 75.0679 285.052 74.8212 285.052 74.5169V73.5812C285.052 73.2769 284.806 73.0303 284.501 73.0303Z" fill="white"/>
<path d="M270.635 73.1992H258.165C257.861 73.1992 257.614 73.4459 257.614 73.7502V74.6859C257.614 74.9902 257.861 75.2368 258.165 75.2368H270.635C270.939 75.2368 271.186 74.9902 271.186 74.6859V73.7502C271.186 73.4459 270.939 73.1992 270.635 73.1992Z" fill="white"/>
<path d="M260.404 68.4307H257.612C257.308 68.4307 257.061 68.6773 257.061 68.9816V69.9173C257.061 70.2216 257.308 70.4683 257.612 70.4683H260.404C260.708 70.4683 260.954 70.2216 260.954 69.9173V68.9816C260.954 68.6773 260.708 68.4307 260.404 68.4307Z" fill="white"/>
<path d="M284.106 68.4307H281.315C281.01 68.4307 280.764 68.6773 280.764 68.9816V69.9173C280.764 70.2216 281.01 70.4683 281.315 70.4683H284.106C284.41 70.4683 284.657 70.2216 284.657 69.9173V68.9816C284.657 68.6773 284.41 68.4307 284.106 68.4307Z" fill="white"/>
<path d="M290.822 68.4307H288.031C287.727 68.4307 287.48 68.6773 287.48 68.9816V69.9173C287.48 70.2216 287.727 70.4683 288.031 70.4683H290.822C291.126 70.4683 291.373 70.2216 291.373 69.9173V68.9816C291.373 68.6773 291.126 68.4307 290.822 68.4307Z" fill="white"/>
<path d="M277.096 68.6006H264.627C264.322 68.6006 264.076 68.8473 264.076 69.1516V70.0872C264.076 70.3915 264.322 70.6382 264.627 70.6382H277.096C277.401 70.6382 277.647 70.3915 277.647 70.0872V69.1516C277.647 68.8473 277.401 68.6006 277.096 68.6006Z" fill="white"/>
</g>
<defs>
<clipPath id="clip0_926_9020">
<rect width="342" height="245" fill="white"/>
</clipPath>
</defs>
</svg>
