<svg width="250" height="220" viewBox="0 0 250 220" fill="none" xmlns="http://www.w3.org/2000/svg">
<path d="M240.697 41.8985L239.183 42.0447L249.332 13.7238C250.08 11.8326 250.202 9.83508 249.687 7.90143C249.24 6.32153 248.136 4.88631 246.531 3.79939C244.849 2.71204 242.788 2.00038 240.586 1.74653C237.904 1.43771 235.166 1.52885 232.532 2.01463L163.556 13.695C161.149 14.1294 158.845 14.8342 156.723 15.7853C154.416 16.8054 152.27 18.0152 150.326 19.3917C148.325 20.7954 146.53 22.352 144.969 24.0357C143.444 25.6652 142.201 27.4309 141.269 29.2911L69.1013 176.876C67.9017 179.303 67.1223 181.833 66.782 184.406C66.466 186.69 66.615 188.997 67.2238 191.248C67.7322 193.204 68.794 195.058 70.3388 196.686C71.7555 198.166 73.7515 199.285 76.0548 199.891L148.932 218.545C152.169 219.365 155.645 219.518 158.99 218.99C162.566 218.411 165.93 217.26 168.846 215.616C172.122 213.786 174.938 211.542 177.167 208.986C179.636 206.178 181.48 203.093 182.63 199.849L231.489 63.5107L233.022 63.4196L240.697 41.8985Z" fill="#134CC7"/>
<path d="M235.424 40.3312L233.911 40.4773L244.06 12.1564C244.808 10.2653 244.93 8.26774 244.415 6.33405C243.968 4.75415 242.864 3.31892 241.258 2.23202C239.577 1.14467 237.516 0.433002 235.314 0.17915C232.632 -0.129679 229.894 -0.0385405 227.26 0.447255L158.284 12.1277C155.876 12.562 153.572 13.2668 151.45 14.2179C149.143 15.2381 146.997 16.4478 145.053 17.8244C143.053 19.228 141.257 20.7846 139.697 22.4684C138.172 24.0979 136.929 25.8635 135.997 27.7237L63.8287 175.308C62.629 177.735 61.8497 180.266 61.5093 182.839C61.1934 185.123 61.3423 187.43 61.9511 189.681C62.4596 191.637 63.5214 193.49 65.0662 195.118C66.4829 196.598 68.4788 197.718 70.7822 198.324L143.659 216.977C146.897 217.797 150.372 217.951 153.717 217.423C157.293 216.844 160.657 215.692 163.574 214.048C166.849 212.219 169.666 209.974 171.895 207.419C174.363 204.61 176.207 201.525 177.357 198.281L226.216 61.9433L227.749 61.8522L235.424 40.3312Z" fill="#090814"/>
<path d="M226.649 4.1438L216.51 5.79513C216.621 6.44732 216.533 7.10967 216.254 7.73345C215.939 8.46348 215.481 9.15513 214.895 9.78631C213.576 11.2184 211.817 12.3956 209.763 13.2199C209.517 13.3171 209.272 13.4069 209.027 13.4893C208.783 13.5717 208.539 13.6464 208.295 13.7134C208.051 13.7805 207.81 13.8398 207.57 13.8912C207.33 13.9427 207.092 13.9861 206.858 14.0214L167.216 19.9895C166.48 20.1165 165.715 20.11 164.983 19.9706C164.394 19.8531 163.875 19.5931 163.507 19.2316C163.137 18.8432 162.927 18.3826 162.905 17.9066C162.875 17.2995 163.004 16.6939 163.285 16.1235C163.356 15.9697 163.436 15.8148 163.525 15.6587C163.615 15.5027 163.713 15.3467 163.82 15.1907C163.925 15.0338 164.04 14.8778 164.165 14.7226C164.29 14.5674 164.421 14.4124 164.56 14.2575L157.053 15.4793C155.245 15.7944 153.512 16.3154 151.918 17.0239C150.176 17.7867 148.557 18.6941 147.09 19.7288C145.579 20.7858 144.223 21.9595 143.047 23.2301C141.899 24.458 140.966 25.7893 140.271 27.1922L68.24 176.058C67.3439 177.888 66.7686 179.795 66.5282 181.734C66.3053 183.445 66.4356 185.171 66.9147 186.853C67.3142 188.306 68.1301 189.679 69.3069 190.877C70.3859 191.964 71.8903 192.776 73.6142 193.203L147.029 210.937C149.451 211.514 152.036 211.6 154.518 211.187C157.161 210.737 159.644 209.87 161.799 208.647C164.21 207.29 166.285 205.632 167.932 203.747C169.755 201.677 171.123 199.404 171.985 197.014L239.061 12.9802C239.624 11.5754 239.729 10.091 239.366 8.65026C239.051 7.46954 238.247 6.39143 237.068 5.56644C235.833 4.74163 234.308 4.19498 232.67 3.99025C230.67 3.74029 228.622 3.79252 226.649 4.1438Z" fill="white"/>
<path d="M187.28 74.6498H41.2431V37.8555H187.282L187.28 74.6498Z" fill="white"/>
<path d="M144.582 87.6348H1.45465V139.219H144.582V87.6348Z" fill="white"/>
<path d="M24.7072 112.407C30.425 112.407 35.0601 108.96 35.0601 104.709C35.0601 100.458 30.425 97.0117 24.7072 97.0117C18.9894 97.0117 14.3542 100.458 14.3542 104.709C14.3542 108.96 18.9894 112.407 24.7072 112.407Z" fill="#134CC7"/>
<path d="M48.6178 99.5781C48.1656 99.5841 47.7346 99.7219 47.4176 99.9619C47.1006 100.202 46.923 100.525 46.923 100.861C46.923 101.197 47.1006 101.52 47.4176 101.76C47.7346 102 48.1656 102.138 48.6178 102.144H129.963C130.415 102.138 130.846 102 131.163 101.76C131.48 101.52 131.657 101.197 131.657 100.861C131.657 100.525 131.48 100.202 131.163 99.9619C130.846 99.7219 130.415 99.5841 129.963 99.5781H48.6178Z" fill="#E6E6E6"/>
<path d="M48.6184 107.274C48.1661 107.28 47.7346 107.417 47.4169 107.656C47.0993 107.896 46.9207 108.218 46.9198 108.555C46.9189 108.891 47.0956 109.214 47.4119 109.455C47.7283 109.695 48.1589 109.833 48.6112 109.84H83.6217C84.074 109.834 84.505 109.696 84.8219 109.456C85.1389 109.216 85.3165 108.894 85.3165 108.557C85.3165 108.221 85.1389 107.898 84.8219 107.658C84.505 107.418 84.074 107.28 83.6217 107.274H48.6184Z" fill="#E6E6E6"/>
<path d="M16.7662 119.58C15.4536 119.58 14.3856 120.155 14.3856 120.863C14.3856 121.571 15.4536 122.146 16.7662 122.146H128.997C130.31 122.146 131.378 121.571 131.378 120.863C131.378 120.155 130.31 119.58 128.997 119.58H16.7662Z" fill="#E6E6E6"/>
<path d="M16.7662 127.278C15.4536 127.278 14.3856 127.853 14.3856 128.561C14.3856 129.27 15.4536 129.844 16.7662 129.844H103.163C104.476 129.844 105.544 129.27 105.544 128.561C105.544 127.853 104.476 127.278 103.163 127.278H16.7662Z" fill="#E6E6E6"/>
<path d="M146.039 140.303H0V86.5537H146.039V140.303ZM2.91127 138.138H143.128V88.7178H2.91127V138.138Z" fill="#E6E6E6"/>
<path d="M65.9479 63.7083C71.6656 63.7083 76.3008 60.2621 76.3008 56.0109C76.3008 51.7597 71.6656 48.3135 65.9479 48.3135C60.2301 48.3135 55.5949 51.7597 55.5949 56.0109C55.5949 60.2621 60.2301 63.7083 65.9479 63.7083Z" fill="#134CC7"/>
<path d="M89.858 50.8781C89.6288 50.8751 89.4011 50.906 89.1882 50.9691C88.9753 51.0322 88.7814 51.1262 88.6179 51.2456C88.4543 51.3651 88.3245 51.5075 88.2358 51.6647C88.1471 51.8218 88.1014 51.9906 88.1014 52.161C88.1014 52.3314 88.1471 52.5001 88.2358 52.6573C88.3245 52.8144 88.4543 52.9569 88.6179 53.0763C88.7814 53.1957 88.9753 53.2897 89.1882 53.3528C89.4011 53.4159 89.6288 53.4469 89.858 53.4438H171.203C171.656 53.4378 172.087 53.3 172.403 53.0601C172.72 52.8201 172.898 52.4973 172.898 52.161C172.898 51.8247 172.72 51.5018 172.403 51.2619C172.087 51.0219 171.656 50.8842 171.203 50.8781H89.858Z" fill="#E6E6E6"/>
<path d="M89.8581 58.5764C89.629 58.573 89.4012 58.6036 89.1881 58.6664C88.9751 58.7292 88.7809 58.8229 88.6171 58.9421C88.4533 59.0612 88.323 59.2035 88.2339 59.3605C88.1448 59.5175 88.0987 59.6861 88.0982 59.8565C88.0977 60.027 88.1429 60.1957 88.2311 60.353C88.3194 60.5103 88.4488 60.6529 88.612 60.7726C88.7751 60.8923 88.9687 60.9866 89.1815 61.05C89.3942 61.1135 89.6218 61.1448 89.8509 61.1421H153.858C154.088 61.1451 154.315 61.1142 154.528 61.0511C154.741 60.988 154.935 60.894 155.098 60.7746C155.262 60.6552 155.392 60.5127 155.481 60.3556C155.569 60.1984 155.615 60.0297 155.615 59.8593C155.615 59.6888 155.569 59.5201 155.481 59.363C155.392 59.2058 155.262 59.0634 155.098 58.9439C154.935 58.8245 154.741 58.7305 154.528 58.6674C154.315 58.6043 154.088 58.5734 153.858 58.5764H89.8581Z" fill="#E6E6E6"/>
<path d="M187.28 74.6498H41.2431V37.8555H187.282L187.28 74.6498ZM44.1522 72.4853H184.369V40.0208H44.1516L44.1522 72.4853Z" fill="#E6E6E6"/>
</svg>
