<svg width="342" height="282" viewBox="0 0 342 282" fill="none" xmlns="http://www.w3.org/2000/svg">
<path d="M282.269 66.8222H280.721V24.4954C280.721 21.2786 280.086 18.0933 278.854 15.1213C277.621 12.1494 275.814 9.44902 273.536 7.1744C271.258 4.89978 268.554 3.09547 265.578 1.86448C262.602 0.633497 259.413 -5.606e-05 256.191 3.72052e-09H166.39C159.884 3.72053e-09 153.645 2.58076 149.045 7.17455C144.445 11.7683 141.861 17.9988 141.861 24.4954V256.705C141.861 263.202 144.445 269.432 149.045 274.026C153.645 278.62 159.884 281.201 166.39 281.201H256.19C262.695 281.201 268.934 278.62 273.534 274.026C278.134 269.432 280.719 263.202 280.719 256.705V96.952H282.269V66.8222Z" fill="#090814"/>
<path d="M257.183 6.37109H245.462C246.001 7.69084 246.207 9.12271 246.061 10.5406C245.915 11.9584 245.423 13.3188 244.627 14.5017C243.831 15.6847 242.755 16.654 241.496 17.3242C240.236 17.9945 238.831 18.3451 237.404 18.3452H185.955C184.528 18.3451 183.122 17.9946 181.862 17.3244C180.603 16.6542 179.528 15.6849 178.731 14.5019C177.935 13.3189 177.443 11.9586 177.297 10.5407C177.151 9.12278 177.357 7.69087 177.896 6.37109H166.949C162.091 6.37109 157.431 8.2985 153.996 11.7293C150.56 15.1601 148.63 19.8133 148.63 24.6652V256.537C148.63 261.389 150.56 266.042 153.996 269.473C157.431 272.904 162.091 274.831 166.949 274.831H257.18C262.038 274.831 266.698 272.904 270.133 269.473C273.568 266.042 275.498 261.389 275.499 256.538V24.6656C275.499 19.8142 273.569 15.1615 270.134 11.7308C266.699 8.30007 262.04 6.37231 257.182 6.37152L257.183 6.37109Z" fill="white"/>
<path d="M242.298 125.917C242.072 125.381 241.693 124.923 241.209 124.6C240.725 124.276 240.157 124.102 239.574 124.098H185.216C184.435 124.098 183.686 124.409 183.133 124.96C182.581 125.512 182.27 126.26 182.269 127.04V195.714C182.27 196.494 182.581 197.242 183.133 197.794C183.686 198.346 184.435 198.656 185.216 198.657H239.576C240.357 198.656 241.107 198.346 241.659 197.794C242.211 197.242 242.522 196.494 242.523 195.714V127.04C242.524 126.654 242.448 126.273 242.3 125.917L242.298 125.917ZM241.867 195.714C241.866 196.321 241.624 196.903 241.194 197.332C240.765 197.761 240.182 198.002 239.574 198.003H185.216C184.608 198.003 184.026 197.762 183.596 197.333C183.166 196.904 182.924 196.322 182.924 195.715V127.04C182.925 126.434 183.166 125.852 183.596 125.423C184.026 124.993 184.608 124.752 185.216 124.751H239.576C240.034 124.753 240.481 124.891 240.86 125.147C241.239 125.404 241.533 125.767 241.704 126.191C241.737 126.275 241.765 126.361 241.789 126.447C241.841 126.64 241.868 126.839 241.868 127.038L241.867 195.714Z" fill="#3F3D56"/>
<path d="M230.953 140.318H214.579C214.232 140.318 213.899 140.18 213.653 139.935C213.408 139.69 213.27 139.357 213.27 139.01C213.27 138.663 213.408 138.331 213.653 138.085C213.899 137.84 214.232 137.702 214.579 137.702H230.953C231.3 137.702 231.633 137.84 231.879 138.085C232.124 138.331 232.262 138.663 232.262 139.01C232.262 139.357 232.124 139.69 231.879 139.935C231.633 140.18 231.3 140.318 230.953 140.318Z" fill="#3F3D56"/>
<path d="M230.953 147.184H214.579C214.232 147.184 213.899 147.047 213.653 146.801C213.408 146.556 213.27 146.223 213.27 145.876C213.27 145.53 213.408 145.197 213.653 144.951C213.899 144.706 214.232 144.568 214.579 144.568H230.953C231.3 144.568 231.633 144.706 231.879 144.951C232.124 145.197 232.262 145.53 232.262 145.876C232.262 146.223 232.124 146.556 231.879 146.801C231.633 147.047 231.3 147.184 230.953 147.184Z" fill="#3F3D56"/>
<path d="M206.179 151.093H194.213C193.822 151.092 193.448 150.937 193.172 150.661C192.895 150.386 192.74 150.012 192.74 149.621V135.52C192.74 135.13 192.895 134.756 193.172 134.48C193.448 134.204 193.822 134.049 194.213 134.049H206.179C206.569 134.049 206.944 134.204 207.22 134.48C207.497 134.756 207.652 135.13 207.652 135.52V149.621C207.652 150.012 207.497 150.386 207.22 150.661C206.944 150.937 206.569 151.092 206.179 151.093Z" fill="#134CC7"/>
<path d="M230.842 161.243H193.838C193.49 161.243 193.157 161.105 192.911 160.86C192.666 160.615 192.528 160.282 192.528 159.935C192.528 159.588 192.666 159.255 192.911 159.01C193.157 158.765 193.49 158.627 193.838 158.627H230.842C231.014 158.627 231.184 158.661 231.343 158.727C231.502 158.792 231.646 158.889 231.768 159.01C231.889 159.132 231.986 159.276 232.052 159.434C232.118 159.593 232.151 159.763 232.151 159.935C232.151 160.107 232.118 160.277 232.052 160.436C231.986 160.594 231.889 160.738 231.768 160.86C231.646 160.981 231.502 161.078 231.343 161.144C231.184 161.209 231.014 161.243 230.842 161.243H230.842Z" fill="#CCCCCC"/>
<path d="M230.842 168.11H193.838C193.49 168.11 193.157 167.972 192.911 167.727C192.666 167.482 192.528 167.149 192.528 166.802C192.528 166.455 192.666 166.123 192.911 165.877C193.157 165.632 193.49 165.494 193.838 165.494H230.842C231.189 165.494 231.522 165.632 231.768 165.877C232.013 166.123 232.151 166.455 232.151 166.802C232.151 167.149 232.013 167.482 231.768 167.727C231.522 167.972 231.189 168.11 230.842 168.11H230.842Z" fill="#CCCCCC"/>
<path d="M230.842 174.98H193.838C193.49 174.98 193.157 174.843 192.911 174.597C192.666 174.352 192.528 174.019 192.528 173.672C192.528 173.325 192.666 172.993 192.911 172.747C193.157 172.502 193.49 172.364 193.838 172.364H230.842C231.189 172.364 231.522 172.502 231.768 172.747C232.013 172.993 232.151 173.325 232.151 173.672C232.151 174.019 232.013 174.352 231.768 174.597C231.522 174.843 231.189 174.98 230.842 174.98H230.842Z" fill="#CCCCCC"/>
<path d="M230.842 181.844H193.838C193.49 181.844 193.157 181.706 192.911 181.461C192.666 181.215 192.528 180.883 192.528 180.536C192.528 180.189 192.666 179.856 192.911 179.611C193.157 179.365 193.49 179.228 193.838 179.228H230.842C231.189 179.228 231.522 179.365 231.768 179.611C232.013 179.856 232.151 180.189 232.151 180.536C232.151 180.883 232.013 181.215 231.768 181.461C231.522 181.706 231.189 181.844 230.842 181.844H230.842Z" fill="#CCCCCC"/>
<path d="M230.842 188.716H193.838C193.49 188.716 193.157 188.578 192.911 188.333C192.666 188.087 192.528 187.755 192.528 187.408C192.528 187.061 192.666 186.728 192.911 186.483C193.157 186.237 193.49 186.1 193.838 186.1H230.842C231.189 186.1 231.522 186.237 231.768 186.483C232.013 186.728 232.151 187.061 232.151 187.408C232.151 187.755 232.013 188.087 231.768 188.333C231.522 188.578 231.189 188.716 230.842 188.716H230.842Z" fill="#CCCCCC"/>
<path d="M213.315 107.554C220.297 107.554 225.957 101.902 225.957 94.9299C225.957 87.9577 220.297 82.3057 213.315 82.3057C206.333 82.3057 200.673 87.9577 200.673 94.9299C200.673 101.902 206.333 107.554 213.315 107.554Z" fill="#134CC7"/>
<path d="M212.064 99.7508C211.779 99.7513 211.502 99.6594 211.275 99.4891L211.261 99.4784L208.29 97.209C208.149 97.1048 208.03 96.9737 207.941 96.8233C207.851 96.6729 207.793 96.5062 207.768 96.333C207.744 96.1597 207.754 95.9833 207.799 95.8141C207.843 95.6449 207.921 95.4863 208.028 95.3475C208.135 95.2087 208.268 95.0924 208.42 95.0055C208.572 94.9186 208.74 94.8628 208.914 94.8414C209.088 94.82 209.264 94.8333 209.433 94.8806C209.601 94.928 209.759 95.0083 209.896 95.1171L211.82 96.5908L216.367 90.6665C216.58 90.3891 216.895 90.2076 217.242 90.1618C217.589 90.116 217.94 90.2097 218.217 90.4223L218.189 90.4616L218.218 90.4223C218.496 90.6353 218.677 90.9495 218.723 91.296C218.769 91.6424 218.675 91.9929 218.462 92.2704L213.114 99.2355C212.99 99.3956 212.831 99.5251 212.649 99.614C212.467 99.7028 212.267 99.7486 212.064 99.7478L212.064 99.7508Z" fill="white"/>
<path d="M173.861 198.897H250.27C250.372 198.894 250.468 198.851 250.539 198.778C250.61 198.705 250.649 198.607 250.649 198.506C250.649 198.404 250.61 198.307 250.539 198.234C250.468 198.161 250.372 198.118 250.27 198.114H173.861C173.808 198.113 173.756 198.122 173.707 198.14C173.658 198.159 173.613 198.188 173.575 198.224C173.537 198.261 173.507 198.305 173.487 198.353C173.466 198.401 173.456 198.453 173.456 198.506C173.456 198.558 173.466 198.61 173.487 198.659C173.507 198.707 173.537 198.751 173.575 198.787C173.613 198.824 173.658 198.852 173.707 198.871C173.756 198.89 173.808 198.899 173.861 198.897Z" fill="#3F3D56"/>
<path d="M30.2865 129.146C35.0175 129.146 38.8527 125.316 38.8527 120.592C38.8527 115.867 35.0175 112.037 30.2865 112.037C25.5555 112.037 21.7202 115.867 21.7202 120.592C21.7202 125.316 25.5555 129.146 30.2865 129.146Z" fill="#CCCCCC"/>
<path d="M29.4401 123.856C29.2475 123.857 29.0599 123.794 28.9057 123.679L28.8963 123.672L26.8832 122.132C26.79 122.061 26.7117 121.972 26.6529 121.871C26.5941 121.769 26.5559 121.657 26.5405 121.541C26.525 121.424 26.5327 121.306 26.563 121.193C26.5933 121.079 26.6457 120.973 26.7171 120.88C26.7886 120.787 26.8777 120.709 26.9794 120.65C27.0811 120.591 27.1933 120.553 27.3098 120.538C27.4262 120.522 27.5446 120.53 27.6581 120.56C27.7716 120.591 27.878 120.643 27.9712 120.714L29.2751 121.713L32.3565 117.7C32.5008 117.512 32.714 117.389 32.9492 117.358C33.1843 117.327 33.4222 117.391 33.6104 117.535L33.5911 117.561L33.6108 117.535C33.7988 117.679 33.9218 117.892 33.9528 118.127C33.9838 118.362 33.9203 118.599 33.7762 118.787L30.1519 123.508C30.0681 123.617 29.9602 123.705 29.8368 123.765C29.7134 123.826 29.5776 123.857 29.4401 123.857V123.856Z" fill="white"/>
<path d="M54.3613 140.651C54.1834 140.229 53.8856 139.869 53.5048 139.614C53.124 139.36 52.6769 139.222 52.2187 139.219H9.44516C8.8304 139.219 8.24093 139.463 7.80623 139.897C7.37153 140.331 7.12717 140.92 7.12683 141.534V195.569C7.12717 196.183 7.37153 196.772 7.80623 197.206C8.24093 197.64 8.8304 197.884 9.44516 197.884H52.2187C52.8333 197.883 53.4224 197.639 53.857 197.205C54.2916 196.771 54.5361 196.183 54.537 195.569V141.533C54.5378 141.23 54.4781 140.93 54.3613 140.651ZM54.0223 195.571C54.0213 196.048 53.8311 196.505 53.4933 196.842C53.1555 197.18 52.6977 197.37 52.22 197.371H9.44516C8.96715 197.371 8.50872 197.181 8.17071 196.844C7.83271 196.506 7.64282 196.048 7.64282 195.571V141.533C7.64384 141.056 7.83405 140.598 8.17184 140.261C8.50962 139.924 8.96746 139.734 9.44516 139.733H52.2187C52.5791 139.734 52.931 139.843 53.2293 140.045C53.5276 140.247 53.7587 140.534 53.8932 140.867C53.9195 140.934 53.9422 141.002 53.9612 141.071C54.0022 141.222 54.0231 141.379 54.0232 141.536L54.0223 195.571Z" fill="#CCCCCC"/>
<path d="M45.4332 151.979H32.5496C32.2763 151.979 32.0141 151.87 31.8208 151.677C31.6275 151.484 31.5189 151.222 31.5189 150.949C31.5189 150.676 31.6275 150.414 31.8208 150.221C32.0141 150.028 32.2763 149.92 32.5496 149.92H45.4332C45.7066 149.92 45.9687 150.028 46.162 150.221C46.3553 150.414 46.4639 150.676 46.4639 150.949C46.4639 151.222 46.3553 151.484 46.162 151.677C45.9687 151.87 45.7066 151.979 45.4332 151.979Z" fill="#CCCCCC"/>
<path d="M45.4332 157.386H32.5496C32.2763 157.386 32.0141 157.277 31.8208 157.084C31.6275 156.891 31.5189 156.629 31.5189 156.356C31.5189 156.083 31.6275 155.822 31.8208 155.629C32.0141 155.436 32.2763 155.327 32.5496 155.327H45.4332C45.7066 155.327 45.9687 155.436 46.162 155.629C46.3553 155.822 46.4639 156.083 46.4639 156.356C46.4639 156.629 46.3553 156.891 46.162 157.084C45.9687 157.277 45.7066 157.386 45.4332 157.386Z" fill="#CCCCCC"/>
<path d="M25.939 160.463H16.5238C16.2164 160.462 15.9217 160.34 15.7043 160.123C15.487 159.906 15.3647 159.612 15.3644 159.305V148.21C15.3647 147.903 15.487 147.608 15.7043 147.391C15.9217 147.174 16.2164 147.052 16.5238 147.052H25.939C26.2464 147.052 26.541 147.174 26.7583 147.391C26.9757 147.608 27.098 147.903 27.0984 148.21V159.305C27.0981 159.612 26.9758 159.906 26.7585 160.123C26.5411 160.34 26.2464 160.462 25.939 160.463Z" fill="#CCCCCC"/>
<path d="M45.3436 168.445H16.227C15.9536 168.445 15.6915 168.337 15.4982 168.144C15.3049 167.951 15.1963 167.689 15.1963 167.416C15.1963 167.143 15.3049 166.881 15.4982 166.688C15.6915 166.495 15.9536 166.387 16.227 166.387H45.3436C45.6169 166.387 45.8791 166.495 46.0724 166.688C46.2657 166.881 46.3743 167.143 46.3743 167.416C46.3743 167.689 46.2657 167.951 46.0724 168.144C45.8791 168.337 45.6169 168.445 45.3436 168.445Z" fill="#CCCCCC"/>
<path d="M45.3436 173.853H16.227C15.9536 173.853 15.6915 173.744 15.4982 173.551C15.3049 173.358 15.1963 173.096 15.1963 172.823C15.1963 172.55 15.3049 172.288 15.4982 172.095C15.6915 171.902 15.9536 171.794 16.227 171.794H45.3436C45.6169 171.794 45.8791 171.902 46.0724 172.095C46.2657 172.288 46.3743 172.55 46.3743 172.823C46.3743 173.096 46.2657 173.358 46.0724 173.551C45.8791 173.744 45.6169 173.853 45.3436 173.853Z" fill="#CCCCCC"/>
<path d="M45.3436 179.253H16.227C15.9536 179.253 15.6915 179.144 15.4982 178.951C15.3049 178.758 15.1963 178.497 15.1963 178.224C15.1963 177.951 15.3049 177.689 15.4982 177.496C15.6915 177.303 15.9536 177.194 16.227 177.194H45.3436C45.6169 177.194 45.8791 177.303 46.0724 177.496C46.2657 177.689 46.3743 177.951 46.3743 178.224C46.3743 178.497 46.2657 178.758 46.0724 178.951C45.8791 179.144 45.6169 179.253 45.3436 179.253Z" fill="#CCCCCC"/>
<path d="M45.3436 184.66H16.227C15.9536 184.66 15.6915 184.552 15.4982 184.359C15.3049 184.166 15.1963 183.904 15.1963 183.631C15.1963 183.358 15.3049 183.096 15.4982 182.903C15.6915 182.71 15.9536 182.602 16.227 182.602H45.3436C45.6169 182.602 45.8791 182.71 46.0724 182.903C46.2657 183.096 46.3743 183.358 46.3743 183.631C46.3743 183.904 46.2657 184.166 46.0724 184.359C45.8791 184.552 45.6169 184.66 45.3436 184.66Z" fill="#CCCCCC"/>
<path d="M45.3436 190.062H16.227C15.9536 190.062 15.6915 189.954 15.4982 189.761C15.3049 189.568 15.1963 189.306 15.1963 189.033C15.1963 188.76 15.3049 188.498 15.4982 188.305C15.6915 188.112 15.9536 188.004 16.227 188.004H45.3436C45.6169 188.004 45.8791 188.112 46.0724 188.305C46.2657 188.498 46.3743 188.76 46.3743 189.033C46.3743 189.306 46.2657 189.568 46.0724 189.761C45.8791 189.954 45.6169 190.062 45.3436 190.062Z" fill="#CCCCCC"/>
<path d="M0.31016 198.112H60.4321C60.5139 198.112 60.5923 198.08 60.6501 198.022C60.708 197.964 60.7405 197.886 60.7405 197.804C60.7405 197.722 60.708 197.644 60.6501 197.586C60.5923 197.529 60.5139 197.496 60.4321 197.496H0.31016C0.228356 197.496 0.149722 197.528 0.0915569 197.585C0.0333923 197.643 0.000458267 197.721 4.74655e-06 197.802C-0.000448774 197.884 0.0316136 197.963 0.0891368 198.021C0.14666 198.079 0.224932 198.112 0.306735 198.112H0.31016Z" fill="#CCCCCC"/>
<path d="M105.787 129.937C110.518 129.937 114.353 126.107 114.353 121.383C114.353 116.658 110.518 112.828 105.787 112.828C101.056 112.828 97.2206 116.658 97.2206 121.383C97.2206 126.107 101.056 129.937 105.787 129.937Z" fill="#CCCCCC"/>
<path d="M104.94 124.647C104.748 124.648 104.56 124.585 104.406 124.47L104.397 124.463L102.384 122.923C102.29 122.852 102.212 122.763 102.153 122.662C102.094 122.56 102.056 122.448 102.041 122.332C102.025 122.215 102.033 122.097 102.063 121.984C102.094 121.87 102.146 121.764 102.218 121.671C102.289 121.578 102.378 121.5 102.48 121.441C102.581 121.382 102.694 121.344 102.81 121.329C102.927 121.313 103.045 121.321 103.158 121.351C103.272 121.382 103.378 121.434 103.472 121.505L104.775 122.504L107.857 118.491C108.001 118.303 108.214 118.18 108.45 118.149C108.685 118.118 108.923 118.182 109.111 118.326C109.299 118.47 109.422 118.683 109.453 118.918C109.484 119.153 109.421 119.39 109.277 119.578L105.652 124.299C105.568 124.408 105.461 124.496 105.337 124.556C105.214 124.617 105.078 124.648 104.941 124.648L104.94 124.647Z" fill="white"/>
<path d="M129.864 141.44C129.687 141.018 129.389 140.658 129.008 140.403C128.627 140.149 128.18 140.011 127.722 140.008H84.9483C84.3335 140.008 83.7439 140.252 83.3091 140.686C82.8743 141.12 82.6299 141.709 82.6295 142.323V196.358C82.6299 196.972 82.8743 197.561 83.3091 197.995C83.7439 198.429 84.3335 198.673 84.9483 198.673H127.722C128.336 198.672 128.926 198.428 129.36 197.994C129.795 197.56 130.039 196.972 130.04 196.358V142.322C130.041 142.018 129.981 141.718 129.864 141.438V141.44ZM129.525 196.36C129.524 196.837 129.334 197.294 128.996 197.632C128.659 197.969 128.201 198.159 127.723 198.16H84.9483C84.4703 198.16 84.0118 197.97 83.6738 197.633C83.3358 197.295 83.1459 196.837 83.1459 196.36V142.322C83.147 141.845 83.3372 141.387 83.675 141.05C84.0127 140.713 84.4706 140.523 84.9483 140.522H127.722C128.083 140.523 128.435 140.632 128.733 140.834C129.031 141.036 129.262 141.323 129.397 141.657C129.423 141.723 129.446 141.791 129.465 141.86C129.506 142.011 129.527 142.168 129.527 142.325L129.525 196.36Z" fill="#CCCCCC"/>
<path d="M120.937 152.762H108.053C107.78 152.762 107.518 152.653 107.325 152.46C107.131 152.267 107.023 152.005 107.023 151.732C107.023 151.459 107.131 151.198 107.325 151.005C107.518 150.812 107.78 150.703 108.053 150.703H120.937C121.21 150.703 121.473 150.812 121.666 151.005C121.859 151.198 121.968 151.459 121.968 151.732C121.968 152.005 121.859 152.267 121.666 152.46C121.473 152.653 121.21 152.762 120.937 152.762Z" fill="#CCCCCC"/>
<path d="M120.937 158.165H108.053C107.78 158.165 107.518 158.057 107.325 157.864C107.131 157.671 107.023 157.409 107.023 157.136C107.023 156.863 107.131 156.601 107.325 156.408C107.518 156.215 107.78 156.106 108.053 156.106H120.937C121.21 156.106 121.472 156.215 121.665 156.408C121.859 156.601 121.967 156.863 121.967 157.136C121.967 157.409 121.859 157.671 121.665 157.864C121.472 158.057 121.21 158.165 120.937 158.165H120.937Z" fill="#CCCCCC"/>
<path d="M101.443 161.243H92.0275C91.7202 161.243 91.4254 161.121 91.2081 160.904C90.9907 160.687 90.8685 160.392 90.8682 160.085V148.99C90.8685 148.683 90.9907 148.389 91.2081 148.172C91.4254 147.954 91.7202 147.832 92.0275 147.832H101.443C101.75 147.832 102.045 147.955 102.262 148.172C102.479 148.389 102.602 148.683 102.602 148.99V160.085C102.602 160.392 102.48 160.687 102.262 160.904C102.045 161.121 101.75 161.243 101.443 161.243Z" fill="#CCCCCC"/>
<path d="M120.847 169.23H91.7308C91.4574 169.23 91.1952 169.122 91.0019 168.929C90.8086 168.736 90.7001 168.474 90.7001 168.201C90.7001 167.928 90.8086 167.666 91.0019 167.473C91.1952 167.28 91.4574 167.172 91.7308 167.172H120.847C121.121 167.172 121.383 167.28 121.576 167.473C121.769 167.666 121.878 167.928 121.878 168.201C121.878 168.474 121.769 168.736 121.576 168.929C121.383 169.122 121.121 169.23 120.847 169.23Z" fill="#CCCCCC"/>
<path d="M120.847 174.639H91.7308C91.4574 174.639 91.1952 174.53 91.0019 174.337C90.8086 174.144 90.7001 173.882 90.7001 173.609C90.7001 173.336 90.8086 173.075 91.0019 172.882C91.1952 172.689 91.4574 172.58 91.7308 172.58H120.847C121.121 172.58 121.383 172.689 121.576 172.882C121.769 173.075 121.878 173.336 121.878 173.609C121.878 173.882 121.769 174.144 121.576 174.337C121.383 174.53 121.121 174.639 120.847 174.639Z" fill="#CCCCCC"/>
<path d="M120.847 180.041H91.7308C91.4574 180.041 91.1952 179.933 91.0019 179.74C90.8086 179.546 90.7001 179.285 90.7001 179.012C90.7001 178.739 90.8086 178.477 91.0019 178.284C91.1952 178.091 91.4574 177.982 91.7308 177.982H120.847C121.121 177.982 121.383 178.091 121.576 178.284C121.769 178.477 121.878 178.739 121.878 179.012C121.878 179.285 121.769 179.546 121.576 179.74C121.383 179.933 121.121 180.041 120.847 180.041Z" fill="#CCCCCC"/>
<path d="M120.847 185.445H91.7308C91.4574 185.445 91.1952 185.337 91.0019 185.144C90.8086 184.951 90.7001 184.689 90.7001 184.416C90.7001 184.143 90.8086 183.881 91.0019 183.688C91.1952 183.495 91.4574 183.387 91.7308 183.387H120.847C121.121 183.387 121.383 183.495 121.576 183.688C121.769 183.881 121.878 184.143 121.878 184.416C121.878 184.689 121.769 184.951 121.576 185.144C121.383 185.337 121.121 185.445 120.847 185.445Z" fill="#CCCCCC"/>
<path d="M120.847 190.851H91.7308C91.4574 190.851 91.1952 190.742 91.0019 190.549C90.8086 190.356 90.7001 190.094 90.7001 189.821C90.7001 189.548 90.8086 189.286 91.0019 189.093C91.1952 188.9 91.4574 188.792 91.7308 188.792H120.847C121.121 188.792 121.383 188.9 121.576 189.093C121.769 189.286 121.878 189.548 121.878 189.821C121.878 190.094 121.769 190.356 121.576 190.549C121.383 190.742 121.121 190.851 120.847 190.851Z" fill="#CCCCCC"/>
<path d="M75.8094 198.897H135.931C136.013 198.897 136.092 198.865 136.149 198.807C136.207 198.749 136.24 198.671 136.24 198.589C136.24 198.508 136.207 198.429 136.149 198.371C136.092 198.314 136.013 198.281 135.931 198.281H75.8094C75.7276 198.281 75.649 198.313 75.5908 198.37C75.5327 198.428 75.4997 198.506 75.4993 198.588C75.4988 198.669 75.5309 198.748 75.5884 198.806C75.6459 198.864 75.7242 198.897 75.806 198.897H75.8094Z" fill="#CCCCCC"/>
<path d="M293.037 142.425C293.037 142.425 296.784 150.357 296.185 152.752C295.834 154.208 295.993 155.74 296.634 157.093L303.529 156.794L309.974 150.655C309.974 150.655 300.232 143.921 300.831 140.627C301.431 137.333 293.037 142.425 293.037 142.425Z" fill="#ED9DA0"/>
<path d="M310.423 154.994L313.421 173.555C313.421 173.555 313.421 190.319 312.523 190.618C311.625 190.917 307.727 190.618 307.727 190.618V171.759L308.926 155.294L310.423 154.994Z" fill="#134CC7"/>
<path opacity="0.1" d="M310.423 154.994L313.421 173.555C313.421 173.555 313.421 190.319 312.523 190.618C311.625 190.917 307.727 190.618 307.727 190.618V171.759L308.926 155.294L310.423 154.994Z" fill="black"/>
<path d="M328.408 263.96L330.806 273.24L334.403 270.546L337.701 263.062L333.504 257.973L328.408 263.96Z" fill="#ED9DA0"/>
<path d="M337.701 261.865C337.701 261.865 333.805 264.859 333.805 267.853C333.805 267.853 331.707 271.145 329.308 270.846V277.133C329.308 277.133 321.814 281.025 327.509 281.922C333.205 282.818 337.402 275.635 337.402 275.635C337.402 275.635 342.798 266.954 341.898 265.756C340.999 264.559 337.701 261.865 337.701 261.865Z" fill="#090814"/>
<path d="M310.402 189.207C310.402 189.207 316.121 195.412 313.422 204.99C313.422 204.99 310.425 226.544 320.017 234.627C329.61 242.709 335.905 260.37 335.905 260.37L328.71 266.956C328.71 266.956 320.917 249.293 312.823 242.408C304.729 235.523 303.83 227.739 303.83 227.739V200.501L302.33 189.125L310.402 189.207Z" fill="#090814"/>
<path opacity="0.1" d="M310.402 189.207C310.402 189.207 316.121 195.412 313.422 204.99C313.422 204.99 310.425 226.544 320.017 234.627C329.61 242.709 335.905 260.37 335.905 260.37L328.71 266.956C328.71 266.956 320.917 249.293 312.823 242.408C304.729 235.523 303.83 227.739 303.83 227.739V200.501L302.33 189.125L310.402 189.207Z" fill="#6F6F6F"/>
<path d="M302.93 270.845L299.932 274.138L301.131 276.832L304.728 278.029L311.024 275.634L310.126 272.042L302.93 270.845Z" fill="#ED9DA0"/>
<path d="M311.023 274.135C311.023 274.135 304.087 277.728 302.353 276.231C301.847 275.808 301.434 275.287 301.136 274.699C300.839 274.111 300.665 273.47 300.623 272.812C300.623 272.812 297.15 273.239 294.838 274.734C292.527 276.228 289.681 276.749 287.902 278.026C286.124 279.303 286.168 281.618 291.66 281.918C297.151 282.217 311.025 281.619 311.025 280.121L311.023 274.135Z" fill="#090814"/>
<path d="M291.539 193.009C291.539 193.009 287.642 210.373 294.536 230.131C294.536 230.131 297.833 241.208 299.332 244.5C300.831 247.792 302.33 271.142 301.731 272.041C301.731 272.041 306.527 275.932 310.724 273.236C310.724 273.236 310.425 259.465 311.023 258.268C311.622 257.071 312.222 246.593 308.625 237.912C305.027 229.231 308.026 208.276 308.026 208.276C308.026 208.276 315.218 197.498 309.822 191.211L291.539 193.009Z" fill="#090814"/>
<path d="M296.034 144.514C300.67 144.514 304.428 140.761 304.428 136.132C304.428 131.503 300.67 127.75 296.034 127.75C291.398 127.75 287.641 131.503 287.641 136.132C287.641 140.761 291.398 144.514 296.034 144.514Z" fill="#ED9DA0"/>
<path d="M311.621 190.914C311.621 190.914 309.223 194.506 307.425 192.71C306.157 191.444 298.039 194.195 293.355 195.928C291.395 196.654 290.037 197.2 290.037 197.2C290.037 197.2 289.908 193.052 289.527 187.798C289.089 181.768 288.322 174.278 287.039 169.96C284.641 161.877 290.636 158.584 290.636 158.584C290.636 158.584 295.733 152.598 295.434 151.699C295.135 150.8 308.923 146.311 308.923 146.311C310.422 146.609 311.621 160.081 311.621 160.081C311.621 160.081 308.923 170.858 307.424 177.444C305.925 184.03 311.621 190.914 311.621 190.914Z" fill="#134CC7"/>
<path d="M285.841 191.215C285.841 191.215 279.246 197.801 275.949 199.597C272.652 201.393 270.853 207.38 273.551 208.577C276.248 209.775 282.244 201.991 282.244 201.991L290.937 194.807L285.841 191.215Z" fill="#ED9DA0"/>
<path d="M287.088 131.129C286.321 131.197 285.883 132.162 286.131 132.889C286.285 133.242 286.517 133.557 286.808 133.809C287.1 134.061 287.444 134.245 287.816 134.348C288.543 134.604 289.319 134.689 290.046 134.942C290.769 135.206 291.441 135.595 292.029 136.091C294.101 137.786 295.328 140.368 295.718 143.014C296.037 145.679 295.787 148.381 294.983 150.943C294.593 152.305 293.957 153.798 292.623 154.282C294.08 153.923 295.504 153.44 296.88 152.84C297.888 152.366 298.835 151.766 299.854 151.315C301.362 150.701 302.944 150.286 304.561 150.083C305.695 149.906 306.895 149.77 307.961 150.199C308.614 150.503 309.216 150.908 309.743 151.399L313.171 154.276C313.231 153.025 313.271 151.774 313.29 150.522C313.372 149.434 313.24 148.34 312.9 147.302C312.504 146.303 311.751 145.489 311.248 144.54C310.001 142.192 310.408 139.361 310.431 136.703C310.455 133.95 310.011 131.145 308.735 128.705C307.459 126.265 305.281 124.223 302.622 123.492C299.04 122.506 295.264 123.972 291.972 125.69C291.198 126.058 290.475 126.528 289.825 127.086C289.133 127.792 288.545 128.593 288.079 129.464L286.448 132.191" fill="#090814"/>
<path opacity="0.1" d="M308.325 163.076C308.325 163.076 302.629 184.63 302.03 186.127C301.598 187.201 296.52 192.92 293.358 195.931C291.397 196.657 290.039 197.202 290.039 197.202C290.039 197.202 289.911 193.052 289.529 187.8C291.969 185.096 294.536 182.534 294.536 182.534C294.536 182.534 297.233 166.069 296.934 159.782C296.634 153.495 302.929 151.999 302.929 151.999C310.123 152.898 308.325 163.076 308.325 163.076Z" fill="black"/>
<path d="M302.029 150.801C302.029 150.801 295.734 152.298 296.034 158.584C296.333 164.87 293.635 181.336 293.635 181.336C293.635 181.336 283.443 191.514 284.342 192.711C285.241 193.909 289.095 196.263 290.016 196.583C290.937 196.902 300.533 186.422 301.131 184.928C301.73 183.434 307.426 161.877 307.426 161.877C307.426 161.877 309.224 151.699 302.029 150.801Z" fill="#134CC7"/>
</svg>
