<svg width="48" height="48" viewBox="0 0 48 48" fill="none" xmlns="http://www.w3.org/2000/svg">
<rect width="48" height="48" rx="24" fill="#B9C2FD" fill-opacity="0.2"/>
<path d="M23.7912 12.5202C23.9296 12.4933 24.0724 12.4933 24.2108 12.5202L33.1385 14.3173C33.6384 14.4161 34 14.8609 34 15.373C34 15.8852 33.6384 16.33 33.1385 16.4288L29.7147 17.1207V19.686C29.7147 22.8622 27.1569 25.4365 24.001 25.4365C20.8451 25.4365 18.2873 22.8622 18.2873 19.686V17.1207L16.1446 16.6894V19.6141L16.8455 23.1363C16.8856 23.3474 16.8321 23.5676 16.6981 23.7338C16.5642 23.9 16.3589 23.9989 16.1446 23.9989H14.7162C14.5019 23.9989 14.3011 23.9045 14.1627 23.7338C14.0243 23.5631 13.9707 23.3474 14.0154 23.1363L14.7162 19.6141V16.3884C14.2921 16.2401 14.002 15.8358 14.002 15.373C14.002 14.8609 14.3636 14.4161 14.8635 14.3173L23.7912 12.5202ZM18.997 27.2201C19.4657 27.0673 19.9701 27.2381 20.3094 27.602L23.4787 30.9939C23.7599 31.2949 24.2376 31.2949 24.5188 30.9939L27.6881 27.602C28.0274 27.2381 28.5318 27.0673 29.0005 27.2201C31.902 28.159 34 30.8906 34 34.1208C34 34.8845 33.384 35.5 32.6296 35.5H15.3724C14.618 35.5 14.002 34.88 14.002 34.1208C14.002 30.8906 16.1 28.159 18.997 27.2201Z" fill="#134CC7"/>
</svg>
