<svg width="48" height="48" viewBox="0 0 48 48" fill="none" xmlns="http://www.w3.org/2000/svg">
<rect width="48" height="48" rx="24" fill="#B9C2FD" fill-opacity="0.2"/>
<path fill-rule="evenodd" clip-rule="evenodd" d="M21.1429 14C20.4798 14 19.8439 14.2634 19.3751 14.7322C18.9062 15.2011 18.6429 15.837 18.6429 16.5V18.2857H16.8571C16.0994 18.2857 15.3727 18.5867 14.8368 19.1226C14.301 19.6584 14 20.3851 14 21.1429V31.1429C14 31.9006 14.301 32.6273 14.8368 33.1632C15.3727 33.699 16.0994 34 16.8571 34H31.1429C31.9006 34 32.6273 33.699 33.1632 33.1632C33.699 32.6273 34 31.9006 34 31.1429V21.1429C34 20.3851 33.699 19.6584 33.1632 19.1226C32.6273 18.5867 31.9006 18.2857 31.1429 18.2857H29.3571V16.5C29.3571 15.837 29.0938 15.2011 28.6249 14.7322C28.1561 14.2634 27.5202 14 26.8571 14H21.1429ZM27.2143 18.2857V16.5C27.2143 16.4053 27.1767 16.3144 27.1097 16.2475C27.0427 16.1805 26.9519 16.1429 26.8571 16.1429H21.1429C21.0481 16.1429 20.9573 16.1805 20.8903 16.2475C20.8233 16.3144 20.7857 16.4053 20.7857 16.5V18.2857H27.2143ZM16.8571 20.4286H31.1429C31.3323 20.4286 31.514 20.5038 31.6479 20.6378C31.7819 20.7717 31.8571 20.9534 31.8571 21.1429V22.5714H16.1429V21.1429C16.1429 20.9534 16.2181 20.7717 16.3521 20.6378C16.486 20.5038 16.6677 20.4286 16.8571 20.4286ZM16.1429 24.7143V31.1429C16.1429 31.3323 16.2181 31.514 16.3521 31.6479C16.486 31.7819 16.6677 31.8571 16.8571 31.8571H31.1429C31.3323 31.8571 31.514 31.7819 31.6479 31.6479C31.7819 31.514 31.8571 31.3323 31.8571 31.1429V24.7143H25.4286V26.8571H22.5714V24.7143H16.1429Z" fill="#134CC7"/>
</svg>
