<svg width="223" height="202" viewBox="0 0 223 202" fill="none" xmlns="http://www.w3.org/2000/svg">
<g clip-path="url(#clip0_931_9584)">
<path d="M176.779 118.829C177.588 112.317 181.62 105.901 187.823 103.781C185.377 110.484 185.377 117.837 187.825 124.54C188.778 127.121 190.107 129.893 189.21 132.495C188.652 134.114 187.287 135.352 185.762 136.127C184.236 136.901 182.543 137.271 180.871 137.632L180.542 137.905C177.888 131.904 175.97 125.341 176.779 118.829Z" fill="#F0F0F0"/>
<path d="M187.885 103.904C184.272 107.956 182.027 113.046 181.468 118.448C181.327 119.609 181.369 120.785 181.594 121.933C181.849 123.044 182.397 124.066 183.18 124.894C183.894 125.68 184.716 126.401 185.228 127.347C185.482 127.836 185.631 128.372 185.664 128.922C185.697 129.472 185.613 130.023 185.419 130.538C184.967 131.834 184.077 132.891 183.171 133.894C182.165 135.008 181.102 136.149 180.675 137.626C180.623 137.804 180.349 137.713 180.4 137.535C181.144 134.966 183.635 133.507 184.823 131.193C185.378 130.113 185.61 128.86 185.091 127.72C184.636 126.723 183.789 125.979 183.059 125.189C182.283 124.393 181.714 123.419 181.4 122.352C181.118 121.22 181.03 120.047 181.141 118.885C181.348 116.265 181.965 113.694 182.97 111.266C184.101 108.488 185.699 105.925 187.694 103.687C187.817 103.548 188.008 103.766 187.885 103.904Z" fill="white"/>
<path d="M181.545 116.699C180.653 116.482 179.866 115.954 179.326 115.21C178.786 114.466 178.528 113.554 178.597 112.637C178.612 112.452 178.901 112.466 178.886 112.652C178.819 113.505 179.06 114.355 179.564 115.047C180.069 115.738 180.803 116.227 181.636 116.424C181.817 116.467 181.725 116.742 181.545 116.699Z" fill="white"/>
<path d="M182.765 124.544C184.377 123.58 185.568 122.043 186.098 120.24C186.151 120.061 186.425 120.152 186.373 120.33C185.817 122.206 184.575 123.803 182.895 124.802C182.735 124.897 182.606 124.638 182.765 124.544Z" fill="white"/>
<path d="M184.369 108.763C184.697 108.919 185.059 108.991 185.421 108.972C185.784 108.954 186.136 108.846 186.447 108.657C186.606 108.56 186.735 108.819 186.577 108.915C186.233 109.122 185.843 109.241 185.443 109.262C185.042 109.284 184.643 109.206 184.279 109.037C184.243 109.024 184.214 108.998 184.197 108.964C184.18 108.93 184.176 108.891 184.187 108.855C184.199 108.818 184.225 108.788 184.259 108.771C184.293 108.754 184.333 108.751 184.369 108.763Z" fill="white"/>
<path d="M206.733 115.413C206.636 115.477 206.538 115.54 206.441 115.606C205.134 116.466 203.899 117.431 202.749 118.491C202.659 118.572 202.569 118.655 202.481 118.738C199.736 121.322 197.495 124.393 195.871 127.797C195.225 129.151 194.684 130.553 194.252 131.99C193.654 133.975 193.164 136.174 191.981 137.797C191.86 137.968 191.728 138.131 191.586 138.286H180.899C180.875 138.273 180.851 138.264 180.826 138.251L180.4 138.271C180.417 138.195 180.436 138.117 180.453 138.042C180.463 137.998 180.475 137.954 180.485 137.91C180.492 137.88 180.5 137.851 180.504 137.824C180.507 137.815 180.509 137.805 180.512 137.797C180.517 137.771 180.524 137.746 180.529 137.722C180.636 137.285 180.747 136.848 180.86 136.411C180.86 136.409 180.86 136.409 180.863 136.406C181.738 133.079 182.899 129.796 184.52 126.793C184.569 126.703 184.618 126.61 184.671 126.52C185.41 125.171 186.257 123.884 187.205 122.673C187.726 122.011 188.28 121.377 188.865 120.771C190.38 119.21 192.131 117.897 194.054 116.88C197.887 114.854 202.325 114.078 206.421 115.315C206.526 115.347 206.628 115.379 206.733 115.413Z" fill="#F0F0F0"/>
<path d="M206.709 115.548C201.387 116.607 196.534 119.316 192.838 123.293C192.027 124.135 191.354 125.1 190.844 126.152C190.379 127.193 190.202 128.339 190.329 129.471C190.427 130.53 190.65 131.601 190.489 132.665C190.398 133.209 190.194 133.727 189.89 134.186C189.585 134.644 189.188 135.034 188.722 135.328C187.582 136.091 186.236 136.398 184.909 136.653C183.436 136.936 181.902 137.206 180.672 138.127C180.523 138.239 180.359 138.001 180.508 137.89C182.647 136.287 185.513 136.623 187.853 135.492C188.945 134.964 189.885 134.103 190.155 132.88C190.392 131.81 190.163 130.705 190.055 129.634C189.914 128.531 190.045 127.411 190.437 126.37C190.893 125.295 191.527 124.306 192.314 123.445C194.055 121.478 196.095 119.797 198.357 118.464C200.931 116.928 203.748 115.845 206.687 115.26C206.869 115.224 206.89 115.512 206.709 115.548Z" fill="white"/>
<path d="M193.953 121.943C193.371 121.232 193.06 120.337 193.076 119.417C193.092 118.497 193.435 117.614 194.042 116.923C194.165 116.784 194.387 116.969 194.263 117.109C193.697 117.751 193.378 118.574 193.365 119.43C193.352 120.287 193.644 121.119 194.19 121.779C194.309 121.922 194.071 122.086 193.953 121.943Z" fill="white"/>
<path d="M190.209 128.941C192.076 129.144 193.951 128.634 195.459 127.514C195.608 127.403 195.773 127.641 195.624 127.752C194.052 128.914 192.1 129.441 190.157 129.226C189.972 129.205 190.025 128.921 190.209 128.941Z" fill="white"/>
<path d="M200.98 117.309C201.148 117.631 201.394 117.907 201.694 118.111C201.995 118.314 202.341 118.44 202.702 118.477C202.888 118.495 202.835 118.78 202.651 118.762C202.252 118.719 201.869 118.58 201.537 118.355C201.204 118.131 200.932 117.828 200.743 117.474C200.722 117.442 200.714 117.403 200.721 117.366C200.728 117.329 200.749 117.295 200.779 117.273C200.811 117.251 200.85 117.243 200.887 117.249C200.925 117.256 200.958 117.278 200.98 117.309Z" fill="white"/>
<path d="M142.262 85.9516C142.483 85.7229 142.652 85.4484 142.755 85.1476C142.859 84.8467 142.896 84.5267 142.862 84.2101C142.829 83.8936 142.727 83.5881 142.563 83.3154C142.399 83.0426 142.178 82.8091 141.914 82.6314L143.89 75.1514L140.083 76.4332L138.791 83.3398C138.522 83.8032 138.432 84.3492 138.538 84.8744C138.645 85.3996 138.94 85.8675 139.368 86.1894C139.796 86.5114 140.327 86.665 140.86 86.6212C141.394 86.5773 141.892 86.3391 142.262 85.9516Z" fill="#9E616A"/>
<path d="M159.874 136.194L157.222 136.194L155.961 125.955L159.874 125.955L159.874 136.194Z" fill="#9E616A"/>
<path d="M160.55 138.767L152.001 138.767V138.658C152.001 137.775 152.351 136.928 152.975 136.303C153.599 135.678 154.446 135.327 155.328 135.327L160.55 135.327L160.55 138.767Z" fill="#2F2E41"/>
<path d="M147.33 136.194L144.679 136.194L143.417 125.955L147.33 125.955L147.33 136.194Z" fill="#9E616A"/>
<path d="M148.006 138.767L139.457 138.767V138.658C139.457 137.775 139.808 136.928 140.432 136.303C141.056 135.678 141.902 135.327 142.785 135.327L148.006 135.327L148.006 138.767Z" fill="#2F2E41"/>
<path d="M145.855 74.5042L144.838 74.7857C144.838 74.7857 142.179 92.0419 141.962 101.135C141.746 110.229 142.611 133.18 142.611 133.18H148.234L152.776 94.207L154.939 133.18H160.994C160.994 133.18 165.32 82.0822 163.373 77.9684C161.427 73.8547 145.855 74.5042 145.855 74.5042Z" fill="#2F2E41"/>
<path d="M153.967 44.0559C156.773 44.0559 159.048 41.7786 159.048 38.9694C159.048 36.1601 156.773 33.8828 153.967 33.8828C151.161 33.8828 148.886 36.1601 148.886 38.9694C148.886 41.7786 151.161 44.0559 153.967 44.0559Z" fill="#9E616A"/>
<path d="M166.834 50.6879L158.948 45.5283L150.775 45.8505L142.828 50.2548L145.855 67.143L144.558 76.8861C144.558 76.8861 156.236 75.587 158.832 77.5357C160.347 78.6918 162.135 79.4375 164.022 79.7008L163.59 63.0292L166.834 50.6879Z" fill="#3F3D56"/>
<path d="M144.341 50.0389L143.524 49.8691L142.828 50.2554C142.828 50.2554 140.881 52.8536 140.881 55.2352C140.881 57.6169 138.502 80.5674 138.502 80.5674L142.828 82.5161L146.288 64.5454L144.341 50.0389Z" fill="#3F3D56"/>
<path d="M158.417 35.2395C158.417 35.2395 159.745 32.6962 156.822 32.465C156.822 32.465 154.329 30.2015 151.789 32.0512C151.789 32.0512 150.403 32.0512 149.646 33.621C149.646 33.621 148.556 33.2072 148.316 34.3146C148.316 34.3146 147.519 36.6267 148.316 38.7076C149.114 40.7884 149.379 41.0197 149.379 41.0197C149.379 41.0197 148.068 36.657 151.258 36.4258C154.448 36.1946 158.017 34.1991 158.283 36.7423C158.548 39.2856 158.948 39.9122 158.948 39.9122C158.948 39.9122 161.473 36.2799 158.417 35.2395Z" fill="#2F2E41"/>
<path d="M92.7607 65.163H29.8259V17.9629H92.7607V65.163Z" fill="white"/>
<path d="M92.7607 65.163H29.8259V17.9629H92.7607V65.163ZM30.4747 18.6124V64.5135H92.1119V18.6124H30.4747Z" fill="#E6E6E6"/>
<path d="M61.2736 53.648C67.8918 53.648 73.2569 48.2768 73.2569 41.6511C73.2569 35.0255 67.8918 29.6543 61.2736 29.6543C54.6554 29.6543 49.2902 35.0255 49.2902 41.6511C49.2902 48.2768 54.6554 53.648 61.2736 53.648Z" fill="#134CC7"/>
<path d="M66.2498 40.6442H62.1754V36.5653C62.1754 36.3107 62.0744 36.0666 61.8946 35.8866C61.7148 35.7066 61.471 35.6055 61.2167 35.6055C60.9624 35.6055 60.7186 35.7066 60.5388 35.8866C60.359 36.0666 60.258 36.3107 60.258 36.5653V40.6442H56.1836C55.9294 40.6442 55.6855 40.7453 55.5057 40.9253C55.3259 41.1053 55.2249 41.3494 55.2249 41.604C55.2249 41.8586 55.3259 42.1027 55.5057 42.2827C55.6855 42.4627 55.9294 42.5638 56.1836 42.5638H60.258V46.6427C60.258 46.8973 60.359 47.1414 60.5388 47.3214C60.7186 47.5014 60.9624 47.6025 61.2167 47.6025C61.471 47.6025 61.7148 47.5014 61.8946 47.3214C62.0744 47.1414 62.1754 46.8973 62.1754 46.6427V42.5638H66.2498C66.504 42.5638 66.7479 42.4627 66.9277 42.2827C67.1075 42.1027 67.2085 41.8586 67.2085 41.604C67.2085 41.3494 67.1075 41.1053 66.9277 40.9253C66.7479 40.7453 66.504 40.6442 66.2498 40.6442Z" fill="white"/>
<path d="M35.0171 17.7659H11.5V0H35.0171V17.7659Z" fill="white"/>
<path d="M35.0171 17.7659H11.5V0H35.0171V17.7659ZM11.9325 17.3329H34.5845V0.433029H11.9325V17.3329Z" fill="#E6E6E6"/>
<path d="M31.9151 4.83887H14.6017V5.9944H31.9151V4.83887Z" fill="#E4E4E4"/>
<path d="M31.9151 8.30469H14.6017V9.46023H31.9151V8.30469Z" fill="#E4E4E4"/>
<path d="M31.9151 11.7715H14.6017V12.927H31.9151V11.7715Z" fill="#E4E4E4"/>
<path d="M191.381 138.797H167.864V121.031H191.381V138.797Z" fill="white"/>
<path d="M191.381 138.797H167.864V121.031H191.381V138.797ZM168.296 138.364H190.948V121.464H168.296V138.364Z" fill="#E6E6E6"/>
<path d="M188.279 125.87H170.966V127.026H188.279V125.87Z" fill="#E4E4E4"/>
<path d="M188.279 129.337H170.966V130.492H188.279V129.337Z" fill="#E4E4E4"/>
<path d="M188.279 132.804H170.966V133.959H188.279V132.804Z" fill="#E4E4E4"/>
<path d="M177.099 106.919L159.533 91.2651L171.332 77.9951L188.898 93.6491L177.099 106.919Z" fill="white"/>
<path d="M177.099 106.919L159.533 91.2651L171.332 77.9951L188.898 93.6491L177.099 106.919ZM160.144 91.2296L177.063 106.308L188.287 93.6846L171.368 78.6065L160.144 91.2296Z" fill="#E6E6E6"/>
<path d="M170.436 83.674L169.668 84.5371L182.6 96.0616L183.368 95.1985L170.436 83.674Z" fill="#E4E4E4"/>
<path d="M168.133 86.2638L167.366 87.127L180.298 98.6515L181.065 97.7884L168.133 86.2638Z" fill="#E4E4E4"/>
<path d="M165.831 88.8527L165.064 89.7158L177.996 101.24L178.763 100.377L165.831 88.8527Z" fill="#E4E4E4"/>
<path d="M48.3323 28.1591H22.0973V8.33984H48.3323V28.1591Z" fill="white"/>
<path d="M48.3323 28.1591H22.0973V8.33984H48.3323V28.1591ZM22.5798 27.676H47.8498V8.82291H22.5798V27.676Z" fill="#E6E6E6"/>
<path d="M44.8719 13.7373H25.5575V15.0264H44.8719V13.7373Z" fill="#134CC7"/>
<path d="M44.8719 17.6045H25.5575V18.8936H44.8719V17.6045Z" fill="#134CC7"/>
<path d="M44.8719 21.4717H25.5575V22.7608H44.8719V21.4717Z" fill="#134CC7"/>
<path d="M116.417 80.0424H76.3813V49.7979H116.417V80.0424Z" fill="white"/>
<path d="M116.417 80.0424H76.3813V49.7979H116.417V80.0424ZM77.1176 79.3052H115.68V50.535H77.1176V79.3052Z" fill="#E6E6E6"/>
<path d="M111.136 58.0361H81.6617V60.0033H111.136V58.0361Z" fill="#134CC7"/>
<path d="M111.136 63.9365H81.6617V65.9037H111.136V63.9365Z" fill="#134CC7"/>
<path d="M111.136 69.8379H81.6617V71.8051H111.136V69.8379Z" fill="#134CC7"/>
<path d="M211.242 139H107.369C107.301 139 107.235 138.973 107.187 138.924C107.139 138.876 107.112 138.81 107.112 138.742C107.112 138.674 107.139 138.608 107.187 138.56C107.235 138.512 107.301 138.485 107.369 138.484H211.242C211.311 138.484 211.376 138.512 211.425 138.56C211.473 138.608 211.5 138.674 211.5 138.742C211.5 138.811 211.473 138.876 211.425 138.924C211.376 138.973 211.311 139 211.242 139Z" fill="#CACACA"/>
<path d="M164.145 85.7885C163.99 85.5105 163.898 85.202 163.875 84.8845C163.852 84.567 163.899 84.2484 164.013 83.951C164.126 83.6537 164.303 83.3849 164.532 83.1635C164.76 82.9421 165.034 82.7735 165.335 82.6697L165.348 74.9326L168.697 77.1517L168.171 84.1588C168.312 84.6758 168.258 85.2266 168.021 85.7067C167.783 86.1868 167.377 86.563 166.881 86.7639C166.385 86.9647 165.832 86.9764 165.328 86.7966C164.824 86.6169 164.403 86.2582 164.145 85.7885Z" fill="#9E616A"/>
<path d="M164.455 51.5541L165.951 50.1104L167.05 50.9045C167.05 50.9045 168.131 52.2036 168.996 56.1009C169.861 59.9981 168.996 81.4331 168.996 81.4331L164.238 80.7835L164.887 69.5248L162.941 59.9981L164.455 51.5541Z" fill="#3F3D56"/>
</g>
<path d="M54.2697 163.48C53.9657 162.92 53.5257 162.496 52.9497 162.208C52.3897 161.904 51.7257 161.752 50.9577 161.752C49.6297 161.752 48.5657 162.192 47.7657 163.072C46.9657 163.936 46.5657 165.096 46.5657 166.552C46.5657 168.104 46.9817 169.32 47.8137 170.2C48.6617 171.064 49.8217 171.496 51.2937 171.496C52.3017 171.496 53.1497 171.24 53.8377 170.728C54.5417 170.216 55.0537 169.48 55.3737 168.52H50.1657V165.496H59.0937V169.312C58.7897 170.336 58.2697 171.288 57.5337 172.168C56.8137 173.048 55.8937 173.76 54.7737 174.304C53.6537 174.848 52.3897 175.12 50.9817 175.12C49.3177 175.12 47.8297 174.76 46.5177 174.04C45.2217 173.304 44.2057 172.288 43.4697 170.992C42.7497 169.696 42.3897 168.216 42.3897 166.552C42.3897 164.888 42.7497 163.408 43.4697 162.112C44.2057 160.8 45.2217 159.784 46.5177 159.064C47.8137 158.328 49.2937 157.96 50.9577 157.96C52.9737 157.96 54.6697 158.448 56.0457 159.424C57.4377 160.4 58.3577 161.752 58.8057 163.48H54.2697ZM73.9909 168.088C73.9909 168.472 73.9669 168.872 73.9189 169.288H64.6309C64.6949 170.12 64.9589 170.76 65.4229 171.208C65.9029 171.64 66.4869 171.856 67.1749 171.856C68.1989 171.856 68.9109 171.424 69.3109 170.56H73.6789C73.4549 171.44 73.0469 172.232 72.4549 172.936C71.8789 173.64 71.1509 174.192 70.2709 174.592C69.3909 174.992 68.4069 175.192 67.3189 175.192C66.0069 175.192 64.8389 174.912 63.8149 174.352C62.7909 173.792 61.9909 172.992 61.4149 171.952C60.8389 170.912 60.5509 169.696 60.5509 168.304C60.5509 166.912 60.8309 165.696 61.3909 164.656C61.9669 163.616 62.7669 162.816 63.7909 162.256C64.8149 161.696 65.9909 161.416 67.3189 161.416C68.6149 161.416 69.7669 161.688 70.7749 162.232C71.7829 162.776 72.5669 163.552 73.1269 164.56C73.7029 165.568 73.9909 166.744 73.9909 168.088ZM69.7909 167.008C69.7909 166.304 69.5509 165.744 69.0709 165.328C68.5909 164.912 67.9909 164.704 67.2709 164.704C66.5829 164.704 65.9989 164.904 65.5189 165.304C65.0549 165.704 64.7669 166.272 64.6549 167.008H69.7909ZM83.62 171.52V175H81.532C80.044 175 78.884 174.64 78.052 173.92C77.22 173.184 76.804 171.992 76.804 170.344V165.016H75.172V161.608H76.804V158.344H80.908V161.608H83.596V165.016H80.908V170.392C80.908 170.792 81.004 171.08 81.196 171.256C81.388 171.432 81.708 171.52 82.156 171.52H83.62ZM97.0879 175.168C95.8559 175.168 94.7519 174.968 93.7759 174.568C92.7999 174.168 92.0159 173.576 91.4239 172.792C90.8479 172.008 90.5439 171.064 90.5119 169.96H94.8799C94.9439 170.584 95.1599 171.064 95.5279 171.4C95.8959 171.72 96.3759 171.88 96.9679 171.88C97.5759 171.88 98.0559 171.744 98.4079 171.472C98.7599 171.184 98.9359 170.792 98.9359 170.296C98.9359 169.88 98.7919 169.536 98.5039 169.264C98.2319 168.992 97.8879 168.768 97.4719 168.592C97.0719 168.416 96.4959 168.216 95.7439 167.992C94.6559 167.656 93.7679 167.32 93.0799 166.984C92.3919 166.648 91.7999 166.152 91.3039 165.496C90.8079 164.84 90.5599 163.984 90.5599 162.928C90.5599 161.36 91.1279 160.136 92.2639 159.256C93.3999 158.36 94.8799 157.912 96.7039 157.912C98.5599 157.912 100.056 158.36 101.192 159.256C102.328 160.136 102.936 161.368 103.016 162.952H98.5759C98.5439 162.408 98.3439 161.984 97.9759 161.68C97.6079 161.36 97.1359 161.2 96.5599 161.2C96.0639 161.2 95.6639 161.336 95.3599 161.608C95.0559 161.864 94.9039 162.24 94.9039 162.736C94.9039 163.28 95.1599 163.704 95.6719 164.008C96.1839 164.312 96.9839 164.64 98.0719 164.992C99.1599 165.36 100.04 165.712 100.712 166.048C101.4 166.384 101.992 166.872 102.488 167.512C102.984 168.152 103.232 168.976 103.232 169.984C103.232 170.944 102.984 171.816 102.488 172.6C102.008 173.384 101.304 174.008 100.376 174.472C99.4479 174.936 98.3519 175.168 97.0879 175.168ZM113.222 171.52V175H111.134C109.646 175 108.486 174.64 107.654 173.92C106.822 173.184 106.406 171.992 106.406 170.344V165.016H104.774V161.608H106.406V158.344H110.51V161.608H113.198V165.016H110.51V170.392C110.51 170.792 110.606 171.08 110.798 171.256C110.99 171.432 111.31 171.52 111.758 171.52H113.222ZM114.692 168.28C114.692 166.904 114.948 165.696 115.46 164.656C115.988 163.616 116.7 162.816 117.596 162.256C118.492 161.696 119.492 161.416 120.596 161.416C121.54 161.416 122.364 161.608 123.068 161.992C123.788 162.376 124.34 162.88 124.724 163.504V161.608H128.828V175H124.724V173.104C124.324 173.728 123.764 174.232 123.044 174.616C122.34 175 121.516 175.192 120.572 175.192C119.484 175.192 118.492 174.912 117.596 174.352C116.7 173.776 115.988 172.968 115.46 171.928C114.948 170.872 114.692 169.656 114.692 168.28ZM124.724 168.304C124.724 167.28 124.436 166.472 123.86 165.88C123.3 165.288 122.612 164.992 121.796 164.992C120.98 164.992 120.284 165.288 119.708 165.88C119.148 166.456 118.868 167.256 118.868 168.28C118.868 169.304 119.148 170.12 119.708 170.728C120.284 171.32 120.98 171.616 121.796 171.616C122.612 171.616 123.3 171.32 123.86 170.728C124.436 170.136 124.724 169.328 124.724 168.304ZM135.901 163.84C136.381 163.104 136.981 162.528 137.701 162.112C138.421 161.68 139.221 161.464 140.101 161.464V165.808H138.973C137.949 165.808 137.181 166.032 136.669 166.48C136.157 166.912 135.901 167.68 135.901 168.784V175H131.797V161.608H135.901V163.84ZM149.526 171.52V175H147.438C145.95 175 144.79 174.64 143.958 173.92C143.126 173.184 142.71 171.992 142.71 170.344V165.016H141.078V161.608H142.71V158.344H146.814V161.608H149.502V165.016H146.814V170.392C146.814 170.792 146.91 171.08 147.102 171.256C147.294 171.432 147.614 171.52 148.062 171.52H149.526ZM164.436 168.088C164.436 168.472 164.412 168.872 164.364 169.288H155.076C155.14 170.12 155.404 170.76 155.868 171.208C156.348 171.64 156.932 171.856 157.62 171.856C158.644 171.856 159.356 171.424 159.756 170.56H164.124C163.9 171.44 163.492 172.232 162.9 172.936C162.324 173.64 161.596 174.192 160.716 174.592C159.836 174.992 158.852 175.192 157.764 175.192C156.452 175.192 155.284 174.912 154.26 174.352C153.236 173.792 152.436 172.992 151.86 171.952C151.284 170.912 150.996 169.696 150.996 168.304C150.996 166.912 151.276 165.696 151.836 164.656C152.412 163.616 153.212 162.816 154.236 162.256C155.26 161.696 156.436 161.416 157.764 161.416C159.06 161.416 160.212 161.688 161.22 162.232C162.228 162.776 163.012 163.552 163.572 164.56C164.148 165.568 164.436 166.744 164.436 168.088ZM160.236 167.008C160.236 166.304 159.996 165.744 159.516 165.328C159.036 164.912 158.436 164.704 157.716 164.704C157.028 164.704 156.444 164.904 155.964 165.304C155.5 165.704 155.212 166.272 155.1 167.008H160.236ZM165.785 168.28C165.785 166.904 166.041 165.696 166.553 164.656C167.081 163.616 167.793 162.816 168.689 162.256C169.585 161.696 170.585 161.416 171.689 161.416C172.569 161.416 173.369 161.6 174.089 161.968C174.825 162.336 175.401 162.832 175.817 163.456V157.24H179.921V175H175.817V173.08C175.433 173.72 174.881 174.232 174.161 174.616C173.457 175 172.633 175.192 171.689 175.192C170.585 175.192 169.585 174.912 168.689 174.352C167.793 173.776 167.081 172.968 166.553 171.928C166.041 170.872 165.785 169.656 165.785 168.28ZM175.817 168.304C175.817 167.28 175.529 166.472 174.953 165.88C174.393 165.288 173.705 164.992 172.889 164.992C172.073 164.992 171.377 165.288 170.801 165.88C170.241 166.456 169.961 167.256 169.961 168.28C169.961 169.304 170.241 170.12 170.801 170.728C171.377 171.32 172.073 171.616 172.889 171.616C173.705 171.616 174.393 171.32 174.953 170.728C175.529 170.136 175.817 169.328 175.817 168.304Z" fill="#0F172A"/>
<path d="M9.42614 192H8.19318C8.12027 191.645 7.99266 191.334 7.81037 191.065C7.63139 190.797 7.41264 190.571 7.15412 190.389C6.89891 190.204 6.61553 190.064 6.30398 189.972C5.99242 189.879 5.66761 189.832 5.32955 189.832C4.71307 189.832 4.15459 189.988 3.65412 190.3C3.15696 190.611 2.76089 191.07 2.46591 191.677C2.17424 192.283 2.02841 193.027 2.02841 193.909C2.02841 194.791 2.17424 195.535 2.46591 196.141C2.76089 196.748 3.15696 197.207 3.65412 197.518C4.15459 197.83 4.71307 197.986 5.32955 197.986C5.66761 197.986 5.99242 197.939 6.30398 197.847C6.61553 197.754 6.89891 197.616 7.15412 197.434C7.41264 197.248 7.63139 197.021 7.81037 196.753C7.99266 196.481 8.12027 196.17 8.19318 195.818H9.42614C9.33333 196.339 9.1643 196.804 8.91903 197.215C8.67377 197.626 8.36885 197.976 8.00426 198.264C7.63968 198.549 7.23035 198.766 6.77628 198.915C6.32552 199.065 5.84328 199.139 5.32955 199.139C4.46117 199.139 3.68892 198.927 3.01278 198.503C2.33665 198.079 1.80469 197.475 1.4169 196.693C1.02912 195.911 0.835227 194.983 0.835227 193.909C0.835227 192.835 1.02912 191.907 1.4169 191.125C1.80469 190.343 2.33665 189.74 3.01278 189.315C3.68892 188.891 4.46117 188.679 5.32955 188.679C5.84328 188.679 6.32552 188.754 6.77628 188.903C7.23035 189.052 7.63968 189.271 8.00426 189.559C8.36885 189.844 8.67377 190.192 8.91903 190.603C9.1643 191.011 9.33333 191.476 9.42614 192ZM12.4327 194.406V199H11.2594V188.818H12.4327V192.557H12.5321C12.7111 192.162 12.9796 191.849 13.3375 191.617C13.6988 191.382 14.1794 191.264 14.7793 191.264C15.2997 191.264 15.7554 191.369 16.1465 191.577C16.5376 191.783 16.8409 192.099 17.0563 192.527C17.275 192.951 17.3844 193.491 17.3844 194.148V199H16.2111V194.227C16.2111 193.621 16.0537 193.152 15.7388 192.82C15.4273 192.486 14.9947 192.318 14.4412 192.318C14.0568 192.318 13.7121 192.399 13.4071 192.562C13.1055 192.724 12.8669 192.961 12.6912 193.273C12.5189 193.584 12.4327 193.962 12.4327 194.406ZM22.6332 199.159C21.9438 199.159 21.3389 198.995 20.8185 198.667C20.3015 198.339 19.8971 197.88 19.6055 197.29C19.3171 196.7 19.1729 196.01 19.1729 195.222C19.1729 194.426 19.3171 193.732 19.6055 193.138C19.8971 192.545 20.3015 192.085 20.8185 191.756C21.3389 191.428 21.9438 191.264 22.6332 191.264C23.3226 191.264 23.9258 191.428 24.4428 191.756C24.9632 192.085 25.3675 192.545 25.6559 193.138C25.9476 193.732 26.0934 194.426 26.0934 195.222C26.0934 196.01 25.9476 196.7 25.6559 197.29C25.3675 197.88 24.9632 198.339 24.4428 198.667C23.9258 198.995 23.3226 199.159 22.6332 199.159ZM22.6332 198.105C23.1568 198.105 23.5877 197.971 23.9258 197.702C24.2638 197.434 24.5141 197.081 24.6765 196.643C24.8389 196.206 24.9201 195.732 24.9201 195.222C24.9201 194.711 24.8389 194.236 24.6765 193.795C24.5141 193.354 24.2638 192.998 23.9258 192.726C23.5877 192.454 23.1568 192.318 22.6332 192.318C22.1095 192.318 21.6786 192.454 21.3406 192.726C21.0025 192.998 20.7522 193.354 20.5898 193.795C20.4274 194.236 20.3462 194.711 20.3462 195.222C20.3462 195.732 20.4274 196.206 20.5898 196.643C20.7522 197.081 21.0025 197.434 21.3406 197.702C21.6786 197.971 22.1095 198.105 22.6332 198.105ZM30.9867 199.159C30.2973 199.159 29.6924 198.995 29.1721 198.667C28.655 198.339 28.2507 197.88 27.959 197.29C27.6706 196.7 27.5265 196.01 27.5265 195.222C27.5265 194.426 27.6706 193.732 27.959 193.138C28.2507 192.545 28.655 192.085 29.1721 191.756C29.6924 191.428 30.2973 191.264 30.9867 191.264C31.6761 191.264 32.2793 191.428 32.7963 191.756C33.3167 192.085 33.7211 192.545 34.0094 193.138C34.3011 193.732 34.4469 194.426 34.4469 195.222C34.4469 196.01 34.3011 196.7 34.0094 197.29C33.7211 197.88 33.3167 198.339 32.7963 198.667C32.2793 198.995 31.6761 199.159 30.9867 199.159ZM30.9867 198.105C31.5104 198.105 31.9412 197.971 32.2793 197.702C32.6174 197.434 32.8676 197.081 33.03 196.643C33.1924 196.206 33.2736 195.732 33.2736 195.222C33.2736 194.711 33.1924 194.236 33.03 193.795C32.8676 193.354 32.6174 192.998 32.2793 192.726C31.9412 192.454 31.5104 192.318 30.9867 192.318C30.463 192.318 30.0321 192.454 29.6941 192.726C29.356 192.998 29.1058 193.354 28.9434 193.795C28.781 194.236 28.6998 194.711 28.6998 195.222C28.6998 195.732 28.781 196.206 28.9434 196.643C29.1058 197.081 29.356 197.434 29.6941 197.702C30.0321 197.971 30.463 198.105 30.9867 198.105ZM41.647 193.074L40.593 193.372C40.5268 193.196 40.429 193.026 40.2997 192.86C40.1738 192.691 40.0014 192.552 39.7827 192.442C39.5639 192.333 39.2839 192.278 38.9425 192.278C38.4751 192.278 38.0857 192.386 37.7741 192.602C37.4659 192.814 37.3118 193.084 37.3118 193.412C37.3118 193.704 37.4179 193.934 37.63 194.103C37.8421 194.272 38.1735 194.413 38.6243 194.526L39.7578 194.804C40.4406 194.97 40.9493 195.223 41.2841 195.565C41.6188 195.903 41.7862 196.339 41.7862 196.872C41.7862 197.31 41.6603 197.701 41.4084 198.045C41.1598 198.39 40.8118 198.662 40.3643 198.861C39.9169 199.06 39.3965 199.159 38.8033 199.159C38.0244 199.159 37.3797 198.99 36.8693 198.652C36.3589 198.314 36.0357 197.82 35.8999 197.17L37.0135 196.892C37.1196 197.303 37.3201 197.611 37.6151 197.817C37.9134 198.022 38.3028 198.125 38.7834 198.125C39.3303 198.125 39.7644 198.009 40.0859 197.777C40.4107 197.542 40.5732 197.26 40.5732 196.932C40.5732 196.667 40.4804 196.445 40.2947 196.266C40.1091 196.083 39.8241 195.947 39.4396 195.858L38.1669 195.56C37.4676 195.394 36.9538 195.137 36.6257 194.789C36.3009 194.438 36.1385 193.999 36.1385 193.472C36.1385 193.041 36.2595 192.66 36.5014 192.328C36.7467 191.997 37.0798 191.737 37.5007 191.548C37.925 191.359 38.4055 191.264 38.9425 191.264C39.6982 191.264 40.2914 191.43 40.7223 191.761C41.1565 192.093 41.4647 192.53 41.647 193.074ZM46.7541 199.159C46.0183 199.159 45.3836 198.997 44.85 198.672C44.3197 198.344 43.9103 197.886 43.622 197.3C43.3369 196.71 43.1944 196.024 43.1944 195.241C43.1944 194.459 43.3369 193.77 43.622 193.173C43.9103 192.573 44.3114 192.106 44.8251 191.771C45.3422 191.433 45.9454 191.264 46.6348 191.264C47.0325 191.264 47.4252 191.33 47.813 191.463C48.2008 191.596 48.5538 191.811 48.872 192.109C49.1902 192.404 49.4437 192.795 49.6326 193.283C49.8216 193.77 49.916 194.37 49.916 195.082V195.58H44.0297V194.565H48.7228C48.7228 194.134 48.6367 193.75 48.4643 193.412C48.2953 193.074 48.0533 192.807 47.7385 192.612C47.4269 192.416 47.059 192.318 46.6348 192.318C46.1674 192.318 45.7631 192.434 45.4217 192.666C45.0836 192.895 44.8234 193.193 44.6412 193.561C44.4589 193.929 44.3677 194.323 44.3677 194.744V195.42C44.3677 195.997 44.4672 196.486 44.666 196.887C44.8682 197.285 45.1483 197.588 45.5062 197.797C45.8642 198.002 46.2801 198.105 46.7541 198.105C47.0623 198.105 47.3407 198.062 47.5893 197.976C47.8412 197.886 48.0583 197.754 48.2406 197.578C48.4229 197.399 48.5637 197.177 48.6632 196.912L49.7967 197.23C49.6774 197.615 49.4769 197.953 49.1951 198.244C48.9134 198.533 48.5654 198.758 48.1511 198.92C47.7368 199.08 47.2711 199.159 46.7541 199.159ZM56.8116 194.406V199H55.6383V188.818H56.8116V192.557H56.911C57.09 192.162 57.3585 191.849 57.7164 191.617C58.0777 191.382 58.5583 191.264 59.1582 191.264C59.6786 191.264 60.1343 191.369 60.5254 191.577C60.9165 191.783 61.2198 192.099 61.4352 192.527C61.6539 192.951 61.7633 193.491 61.7633 194.148V199H60.59V194.227C60.59 193.621 60.4326 193.152 60.1177 192.82C59.8062 192.486 59.3736 192.318 58.8201 192.318C58.4357 192.318 58.091 192.399 57.786 192.562C57.4844 192.724 57.2458 192.961 57.0701 193.273C56.8978 193.584 56.8116 193.962 56.8116 194.406ZM67.0121 199.159C66.3227 199.159 65.7178 198.995 65.1974 198.667C64.6804 198.339 64.276 197.88 63.9844 197.29C63.696 196.7 63.5518 196.01 63.5518 195.222C63.5518 194.426 63.696 193.732 63.9844 193.138C64.276 192.545 64.6804 192.085 65.1974 191.756C65.7178 191.428 66.3227 191.264 67.0121 191.264C67.7015 191.264 68.3047 191.428 68.8217 191.756C69.3421 192.085 69.7464 192.545 70.0348 193.138C70.3265 193.732 70.4723 194.426 70.4723 195.222C70.4723 196.01 70.3265 196.7 70.0348 197.29C69.7464 197.88 69.3421 198.339 68.8217 198.667C68.3047 198.995 67.7015 199.159 67.0121 199.159ZM67.0121 198.105C67.5357 198.105 67.9666 197.971 68.3047 197.702C68.6428 197.434 68.893 197.081 69.0554 196.643C69.2178 196.206 69.299 195.732 69.299 195.222C69.299 194.711 69.2178 194.236 69.0554 193.795C68.893 193.354 68.6428 192.998 68.3047 192.726C67.9666 192.454 67.5357 192.318 67.0121 192.318C66.4884 192.318 66.0575 192.454 65.7195 192.726C65.3814 192.998 65.1312 193.354 64.9688 193.795C64.8063 194.236 64.7251 194.711 64.7251 195.222C64.7251 195.732 64.8063 196.206 64.9688 196.643C65.1312 197.081 65.3814 197.434 65.7195 197.702C66.0575 197.971 66.4884 198.105 67.0121 198.105ZM73.7337 199L71.407 191.364H72.6399L74.2905 197.21H74.37L76.0007 191.364H77.2536L78.8643 197.19H78.9439L80.5945 191.364H81.8274L79.5007 199H78.3473L76.6768 193.134H76.5575L74.8871 199H73.7337ZM88.0717 201.864C87.8729 201.864 87.6955 201.847 87.5398 201.814C87.384 201.784 87.2763 201.754 87.2166 201.724L87.5149 200.69C87.8 200.763 88.0518 200.79 88.2706 200.77C88.4893 200.75 88.6832 200.652 88.8523 200.477C89.0246 200.304 89.1821 200.024 89.3246 199.636L89.5433 199.04L86.7195 191.364H87.9922L90.1001 197.449H90.1797L92.2876 191.364H93.5604L90.3189 200.114C90.1731 200.508 89.9924 200.835 89.777 201.093C89.5616 201.355 89.3113 201.549 89.0263 201.675C88.7446 201.801 88.4264 201.864 88.0717 201.864ZM97.9379 199.159C97.2485 199.159 96.6436 198.995 96.1232 198.667C95.6062 198.339 95.2018 197.88 94.9102 197.29C94.6218 196.7 94.4776 196.01 94.4776 195.222C94.4776 194.426 94.6218 193.732 94.9102 193.138C95.2018 192.545 95.6062 192.085 96.1232 191.756C96.6436 191.428 97.2485 191.264 97.9379 191.264C98.6272 191.264 99.2305 191.428 99.7475 191.756C100.268 192.085 100.672 192.545 100.961 193.138C101.252 193.732 101.398 194.426 101.398 195.222C101.398 196.01 101.252 196.7 100.961 197.29C100.672 197.88 100.268 198.339 99.7475 198.667C99.2305 198.995 98.6272 199.159 97.9379 199.159ZM97.9379 198.105C98.4615 198.105 98.8924 197.971 99.2305 197.702C99.5685 197.434 99.8188 197.081 99.9812 196.643C100.144 196.206 100.225 195.732 100.225 195.222C100.225 194.711 100.144 194.236 99.9812 193.795C99.8188 193.354 99.5685 192.998 99.2305 192.726C98.8924 192.454 98.4615 192.318 97.9379 192.318C97.4142 192.318 96.9833 192.454 96.6452 192.726C96.3072 192.998 96.0569 193.354 95.8945 193.795C95.7321 194.236 95.6509 194.711 95.6509 195.222C95.6509 195.732 95.7321 196.206 95.8945 196.643C96.0569 197.081 96.3072 197.434 96.6452 197.702C96.9833 197.971 97.4142 198.105 97.9379 198.105ZM108.002 195.878V191.364H109.175V199H108.002V197.707H107.922C107.743 198.095 107.465 198.425 107.087 198.697C106.709 198.965 106.232 199.099 105.655 199.099C105.178 199.099 104.753 198.995 104.382 198.786C104.011 198.574 103.719 198.256 103.507 197.832C103.295 197.404 103.189 196.866 103.189 196.216V191.364H104.362V196.136C104.362 196.693 104.518 197.137 104.83 197.469C105.145 197.8 105.546 197.966 106.033 197.966C106.325 197.966 106.621 197.891 106.923 197.742C107.228 197.593 107.483 197.364 107.688 197.056C107.897 196.748 108.002 196.355 108.002 195.878ZM116.991 199L114.665 191.364H115.898L117.548 197.21H117.628L119.259 191.364H120.511L122.122 197.19H122.202L123.852 191.364H125.085L122.759 199H121.605L119.935 193.134H119.815L118.145 199H116.991ZM128.884 199.179C128.4 199.179 127.96 199.088 127.566 198.906C127.172 198.72 126.858 198.453 126.626 198.105C126.394 197.754 126.278 197.33 126.278 196.832C126.278 196.395 126.365 196.04 126.537 195.768C126.709 195.493 126.94 195.278 127.228 195.122C127.516 194.966 127.835 194.85 128.183 194.774C128.534 194.695 128.887 194.632 129.241 194.585C129.705 194.526 130.082 194.481 130.37 194.451C130.662 194.418 130.874 194.363 131.006 194.287C131.142 194.211 131.21 194.078 131.21 193.889V193.849C131.21 193.359 131.076 192.978 130.808 192.706C130.542 192.434 130.14 192.298 129.599 192.298C129.039 192.298 128.6 192.421 128.282 192.666C127.964 192.911 127.74 193.173 127.611 193.452L126.497 193.054C126.696 192.59 126.961 192.229 127.293 191.97C127.627 191.708 127.992 191.526 128.386 191.423C128.784 191.317 129.175 191.264 129.56 191.264C129.805 191.264 130.087 191.294 130.405 191.354C130.726 191.41 131.036 191.528 131.335 191.707C131.636 191.886 131.886 192.156 132.085 192.517C132.284 192.878 132.384 193.362 132.384 193.969V199H131.21V197.966H131.151C131.071 198.132 130.938 198.309 130.753 198.498C130.567 198.687 130.32 198.848 130.012 198.98C129.704 199.113 129.328 199.179 128.884 199.179ZM129.062 198.125C129.527 198.125 129.918 198.034 130.236 197.852C130.557 197.669 130.799 197.434 130.962 197.146C131.127 196.857 131.21 196.554 131.21 196.236V195.162C131.161 195.222 131.051 195.276 130.882 195.326C130.716 195.372 130.524 195.414 130.305 195.45C130.09 195.483 129.879 195.513 129.674 195.54C129.472 195.563 129.308 195.583 129.182 195.599C128.877 195.639 128.592 195.704 128.327 195.793C128.065 195.879 127.853 196.01 127.69 196.186C127.531 196.358 127.452 196.594 127.452 196.892C127.452 197.3 127.603 197.608 127.904 197.817C128.209 198.022 128.595 198.125 129.062 198.125ZM135.698 194.406V199H134.525V191.364H135.659V192.557H135.758C135.937 192.169 136.209 191.857 136.573 191.622C136.938 191.384 137.409 191.264 137.985 191.264C138.502 191.264 138.955 191.37 139.343 191.582C139.73 191.791 140.032 192.109 140.247 192.537C140.463 192.961 140.57 193.498 140.57 194.148V199H139.397V194.227C139.397 193.627 139.241 193.16 138.93 192.825C138.618 192.487 138.191 192.318 137.647 192.318C137.273 192.318 136.938 192.399 136.643 192.562C136.351 192.724 136.121 192.961 135.952 193.273C135.783 193.584 135.698 193.962 135.698 194.406ZM146.036 191.364V192.358H142.078V191.364H146.036ZM143.232 189.534H144.405V196.812C144.405 197.144 144.453 197.393 144.549 197.558C144.648 197.721 144.774 197.83 144.927 197.886C145.083 197.939 145.247 197.966 145.419 197.966C145.548 197.966 145.654 197.959 145.737 197.946C145.82 197.929 145.886 197.916 145.936 197.906L146.175 198.96C146.095 198.99 145.984 199.02 145.842 199.05C145.699 199.083 145.518 199.099 145.3 199.099C144.968 199.099 144.643 199.028 144.325 198.886C144.01 198.743 143.749 198.526 143.54 198.234C143.334 197.943 143.232 197.575 143.232 197.131V189.534ZM155.059 191.364V192.358H151.102V191.364H155.059ZM152.255 189.534H153.428V196.812C153.428 197.144 153.476 197.393 153.572 197.558C153.672 197.721 153.798 197.83 153.95 197.886C154.106 197.939 154.27 197.966 154.442 197.966C154.572 197.966 154.678 197.959 154.761 197.946C154.844 197.929 154.91 197.916 154.96 197.906L155.198 198.96C155.119 198.99 155.008 199.02 154.865 199.05C154.723 199.083 154.542 199.099 154.323 199.099C153.992 199.099 153.667 199.028 153.349 198.886C153.034 198.743 152.772 198.526 152.563 198.234C152.358 197.943 152.255 197.575 152.255 197.131V189.534ZM159.844 199.159C159.155 199.159 158.55 198.995 158.029 198.667C157.512 198.339 157.108 197.88 156.816 197.29C156.528 196.7 156.384 196.01 156.384 195.222C156.384 194.426 156.528 193.732 156.816 193.138C157.108 192.545 157.512 192.085 158.029 191.756C158.55 191.428 159.155 191.264 159.844 191.264C160.533 191.264 161.137 191.428 161.654 191.756C162.174 192.085 162.578 192.545 162.867 193.138C163.158 193.732 163.304 194.426 163.304 195.222C163.304 196.01 163.158 196.7 162.867 197.29C162.578 197.88 162.174 198.339 161.654 198.667C161.137 198.995 160.533 199.159 159.844 199.159ZM159.844 198.105C160.368 198.105 160.799 197.971 161.137 197.702C161.475 197.434 161.725 197.081 161.887 196.643C162.05 196.206 162.131 195.732 162.131 195.222C162.131 194.711 162.05 194.236 161.887 193.795C161.725 193.354 161.475 192.998 161.137 192.726C160.799 192.454 160.368 192.318 159.844 192.318C159.32 192.318 158.89 192.454 158.551 192.726C158.213 192.998 157.963 193.354 157.801 193.795C157.638 194.236 157.557 194.711 157.557 195.222C157.557 195.732 157.638 196.206 157.801 196.643C157.963 197.081 158.213 197.434 158.551 197.702C158.89 197.971 159.32 198.105 159.844 198.105ZM169.033 201.864V191.364H170.166V192.577H170.306C170.392 192.444 170.511 192.275 170.664 192.07C170.819 191.861 171.041 191.675 171.33 191.513C171.621 191.347 172.016 191.264 172.513 191.264C173.156 191.264 173.723 191.425 174.213 191.746C174.704 192.068 175.087 192.524 175.362 193.114C175.637 193.704 175.774 194.4 175.774 195.202C175.774 196.01 175.637 196.711 175.362 197.305C175.087 197.895 174.705 198.352 174.218 198.677C173.731 198.998 173.169 199.159 172.533 199.159C172.042 199.159 171.65 199.078 171.355 198.915C171.06 198.75 170.833 198.562 170.673 198.354C170.514 198.142 170.392 197.966 170.306 197.827H170.206V201.864H169.033ZM170.186 195.182C170.186 195.759 170.271 196.267 170.44 196.708C170.609 197.146 170.856 197.489 171.181 197.737C171.505 197.982 171.903 198.105 172.374 198.105C172.864 198.105 173.274 197.976 173.602 197.717C173.933 197.455 174.182 197.104 174.347 196.663C174.517 196.219 174.601 195.725 174.601 195.182C174.601 194.645 174.518 194.161 174.352 193.73C174.19 193.296 173.943 192.953 173.612 192.701C173.284 192.446 172.871 192.318 172.374 192.318C171.896 192.318 171.495 192.439 171.171 192.681C170.846 192.92 170.601 193.254 170.435 193.685C170.269 194.113 170.186 194.612 170.186 195.182ZM177.564 199V191.364H178.698V192.517H178.777C178.916 192.139 179.168 191.833 179.533 191.597C179.897 191.362 180.308 191.244 180.766 191.244C180.852 191.244 180.96 191.246 181.089 191.249C181.218 191.253 181.316 191.258 181.382 191.264V192.457C181.343 192.447 181.251 192.433 181.109 192.413C180.97 192.389 180.822 192.378 180.666 192.378C180.295 192.378 179.964 192.456 179.672 192.612C179.384 192.764 179.155 192.976 178.986 193.248C178.82 193.516 178.737 193.823 178.737 194.168V199H177.564ZM185.643 199.159C184.954 199.159 184.349 198.995 183.828 198.667C183.311 198.339 182.907 197.88 182.615 197.29C182.327 196.7 182.183 196.01 182.183 195.222C182.183 194.426 182.327 193.732 182.615 193.138C182.907 192.545 183.311 192.085 183.828 191.756C184.349 191.428 184.954 191.264 185.643 191.264C186.332 191.264 186.936 191.428 187.453 191.756C187.973 192.085 188.377 192.545 188.666 193.138C188.957 193.732 189.103 194.426 189.103 195.222C189.103 196.01 188.957 196.7 188.666 197.29C188.377 197.88 187.973 198.339 187.453 198.667C186.936 198.995 186.332 199.159 185.643 199.159ZM185.643 198.105C186.167 198.105 186.597 197.971 186.936 197.702C187.274 197.434 187.524 197.081 187.686 196.643C187.849 196.206 187.93 195.732 187.93 195.222C187.93 194.711 187.849 194.236 187.686 193.795C187.524 193.354 187.274 192.998 186.936 192.726C186.597 192.454 186.167 192.318 185.643 192.318C185.119 192.318 184.688 192.454 184.35 192.726C184.012 192.998 183.762 193.354 183.6 193.795C183.437 194.236 183.356 194.711 183.356 195.222C183.356 195.732 183.437 196.206 183.6 196.643C183.762 197.081 184.012 197.434 184.35 197.702C184.688 197.971 185.119 198.105 185.643 198.105ZM193.996 199.159C193.281 199.159 192.664 198.99 192.147 198.652C191.63 198.314 191.232 197.848 190.954 197.255C190.675 196.662 190.536 195.984 190.536 195.222C190.536 194.446 190.679 193.762 190.964 193.168C191.252 192.572 191.653 192.106 192.167 191.771C192.684 191.433 193.287 191.264 193.977 191.264C194.513 191.264 194.997 191.364 195.428 191.562C195.859 191.761 196.212 192.04 196.487 192.398C196.762 192.756 196.933 193.173 196.999 193.651H195.826C195.737 193.303 195.538 192.994 195.229 192.726C194.924 192.454 194.513 192.318 193.996 192.318C193.539 192.318 193.138 192.437 192.793 192.676C192.452 192.911 192.185 193.245 191.993 193.675C191.804 194.103 191.71 194.605 191.71 195.182C191.71 195.772 191.802 196.286 191.988 196.723C192.177 197.161 192.442 197.5 192.783 197.742C193.128 197.984 193.532 198.105 193.996 198.105C194.301 198.105 194.578 198.052 194.827 197.946C195.075 197.84 195.286 197.688 195.458 197.489C195.63 197.29 195.753 197.051 195.826 196.773H196.999C196.933 197.223 196.769 197.629 196.507 197.991C196.249 198.349 195.906 198.634 195.478 198.846C195.054 199.055 194.56 199.159 193.996 199.159ZM201.916 199.159C201.18 199.159 200.546 198.997 200.012 198.672C199.482 198.344 199.072 197.886 198.784 197.3C198.499 196.71 198.357 196.024 198.357 195.241C198.357 194.459 198.499 193.77 198.784 193.173C199.072 192.573 199.473 192.106 199.987 191.771C200.504 191.433 201.107 191.264 201.797 191.264C202.195 191.264 202.587 191.33 202.975 191.463C203.363 191.596 203.716 191.811 204.034 192.109C204.352 192.404 204.606 192.795 204.795 193.283C204.984 193.77 205.078 194.37 205.078 195.082V195.58H199.192V194.565H203.885C203.885 194.134 203.799 193.75 203.626 193.412C203.457 193.074 203.215 192.807 202.901 192.612C202.589 192.416 202.221 192.318 201.797 192.318C201.33 192.318 200.925 192.434 200.584 192.666C200.246 192.895 199.986 193.193 199.803 193.561C199.621 193.929 199.53 194.323 199.53 194.744V195.42C199.53 195.997 199.629 196.486 199.828 196.887C200.03 197.285 200.31 197.588 200.668 197.797C201.026 198.002 201.442 198.105 201.916 198.105C202.224 198.105 202.503 198.062 202.751 197.976C203.003 197.886 203.22 197.754 203.403 197.578C203.585 197.399 203.726 197.177 203.825 196.912L204.959 197.23C204.839 197.615 204.639 197.953 204.357 198.244C204.076 198.533 203.728 198.758 203.313 198.92C202.899 199.08 202.433 199.159 201.916 199.159ZM210.065 199.159C209.329 199.159 208.694 198.997 208.161 198.672C207.63 198.344 207.221 197.886 206.933 197.3C206.647 196.71 206.505 196.024 206.505 195.241C206.505 194.459 206.647 193.77 206.933 193.173C207.221 192.573 207.622 192.106 208.136 191.771C208.653 191.433 209.256 191.264 209.945 191.264C210.343 191.264 210.736 191.33 211.124 191.463C211.511 191.596 211.864 191.811 212.183 192.109C212.501 192.404 212.754 192.795 212.943 193.283C213.132 193.77 213.227 194.37 213.227 195.082V195.58H207.34V194.565H212.033C212.033 194.134 211.947 193.75 211.775 193.412C211.606 193.074 211.364 192.807 211.049 192.612C210.737 192.416 210.37 192.318 209.945 192.318C209.478 192.318 209.074 192.434 208.732 192.666C208.394 192.895 208.134 193.193 207.952 193.561C207.769 193.929 207.678 194.323 207.678 194.744V195.42C207.678 195.997 207.778 196.486 207.977 196.887C208.179 197.285 208.459 197.588 208.817 197.797C209.175 198.002 209.591 198.105 210.065 198.105C210.373 198.105 210.651 198.062 210.9 197.976C211.152 197.886 211.369 197.754 211.551 197.578C211.733 197.399 211.874 197.177 211.974 196.912L213.107 197.23C212.988 197.615 212.787 197.953 212.506 198.244C212.224 198.533 211.876 198.758 211.462 198.92C211.047 199.08 210.582 199.159 210.065 199.159ZM217.895 199.159C217.259 199.159 216.697 198.998 216.21 198.677C215.722 198.352 215.341 197.895 215.066 197.305C214.791 196.711 214.653 196.01 214.653 195.202C214.653 194.4 214.791 193.704 215.066 193.114C215.341 192.524 215.724 192.068 216.214 191.746C216.705 191.425 217.272 191.264 217.915 191.264C218.412 191.264 218.805 191.347 219.093 191.513C219.385 191.675 219.607 191.861 219.759 192.07C219.915 192.275 220.036 192.444 220.122 192.577H220.222V188.818H221.395V199H220.261V197.827H220.122C220.036 197.966 219.913 198.142 219.754 198.354C219.595 198.562 219.368 198.75 219.073 198.915C218.778 199.078 218.385 199.159 217.895 199.159ZM218.054 198.105C218.525 198.105 218.922 197.982 219.247 197.737C219.572 197.489 219.819 197.146 219.988 196.708C220.157 196.267 220.241 195.759 220.241 195.182C220.241 194.612 220.159 194.113 219.993 193.685C219.827 193.254 219.582 192.92 219.257 192.681C218.932 192.439 218.531 192.318 218.054 192.318C217.557 192.318 217.143 192.446 216.811 192.701C216.483 192.953 216.236 193.296 216.07 193.73C215.908 194.161 215.827 194.645 215.827 195.182C215.827 195.725 215.91 196.219 216.075 196.663C216.244 197.104 216.493 197.455 216.821 197.717C217.152 197.976 217.563 198.105 218.054 198.105Z" fill="#475569"/>
<defs>
<clipPath id="clip0_931_9584">
<rect width="200" height="139" fill="white" transform="translate(11.5)"/>
</clipPath>
</defs>
</svg>
