<svg width="30" height="30" viewBox="0 0 30 30" fill="none" xmlns="http://www.w3.org/2000/svg">
<rect width="30" height="30" rx="15" fill="#EFF6FF"/>
<path d="M7.5 20.25C7.5 21.525 8.475 22.5 9.75 22.5H20.25C21.525 22.5 22.5 21.525 22.5 20.25V14.25H7.5V20.25ZM20.25 9H18.75V8.25C18.75 7.8 18.45 7.5 18 7.5C17.55 7.5 17.25 7.8 17.25 8.25V9H12.75V8.25C12.75 7.8 12.45 7.5 12 7.5C11.55 7.5 11.25 7.8 11.25 8.25V9H9.75C8.475 9 7.5 9.975 7.5 11.25V12.75H22.5V11.25C22.5 9.975 21.525 9 20.25 9Z" fill="#2F80ED"/>
</svg>
