<svg width="20" height="20" viewBox="0 0 20 20" fill="none" xmlns="http://www.w3.org/2000/svg">
<path opacity="0.987" fill-rule="evenodd" clip-rule="evenodd" d="M9.01119 1.32594C9.91744 1.22469 10.4537 1.22469 11.4274 1.32594C13.1511 1.58106 14.749 2.37779 15.9899 3.60094C15.1513 4.39361 14.3238 5.19785 13.5074 6.01344C11.9441 4.68844 10.1991 4.3826 8.27244 5.09594C6.8591 5.74594 5.87494 6.79927 5.31994 8.25594C4.41299 7.58073 3.51785 6.88979 2.63494 6.18344C2.57358 6.15114 2.5035 6.13931 2.43494 6.14969C3.83744 3.44552 6.0291 1.83719 9.00994 1.32469" fill="#F44336"/>
<path opacity="0.997" fill-rule="evenodd" clip-rule="evenodd" d="M2.43245 6.14949C2.50328 6.13866 2.57037 6.14991 2.6337 6.18324C3.51661 6.88959 4.41175 7.58053 5.3187 8.25574C5.17598 8.82332 5.08601 9.40286 5.04995 9.98699C5.08078 10.552 5.17037 11.1066 5.3187 11.6507L2.49995 13.8945C1.27245 11.3295 1.24995 8.74783 2.43245 6.14949Z" fill="#FFC107"/>
<path opacity="0.999" fill-rule="evenodd" clip-rule="evenodd" d="M15.8562 16.6124C14.9785 15.8384 14.0597 15.1123 13.1037 14.4374C14.062 13.7608 14.6437 12.8324 14.8487 11.6524H10.1525V8.39117C12.8608 8.36867 15.5679 8.39159 18.2737 8.45992C18.7871 11.2474 18.1941 13.7608 16.495 15.9999C16.2929 16.2147 16.0789 16.4191 15.8562 16.6124Z" fill="#448AFF"/>
<path opacity="0.993" fill-rule="evenodd" clip-rule="evenodd" d="M5.31875 11.6523C6.34375 14.1998 8.22292 15.389 10.9563 15.2198C11.7235 15.131 12.4592 14.863 13.1038 14.4373C14.0604 15.114 14.9779 15.839 15.8563 16.6123C14.4646 17.8629 12.6901 18.6049 10.8225 18.7173C10.3982 18.7513 9.97182 18.7513 9.5475 18.7173C6.36583 18.3423 4.01667 16.7348 2.5 13.8948L5.31875 11.6523Z" fill="#43A047"/>
</svg>
