<svg width="193" height="49" viewBox="0 0 193 49" fill="none" xmlns="http://www.w3.org/2000/svg">
<path d="M21.3456 3.90514C20.5123 4.08431 18.6672 4.82088 18.6672 4.96023C18.6672 5.05977 18.9847 5.31857 19.3815 5.57736C20.056 5.99541 20.1354 5.99541 20.6512 5.6968C21.0282 5.45792 21.6631 5.35838 22.6749 5.35838C25.1549 5.35838 26.8611 6.4931 27.3968 8.52365C27.5555 9.14078 27.615 12.9829 27.5753 22.2597L27.5158 35.1199L27.0595 35.6773C26.4048 36.4935 26.4445 37.4888 27.1785 38.2254C27.496 38.5439 27.9523 38.8027 28.1904 38.8027C28.8848 38.8027 29.6982 38.2652 29.9561 37.6481C30.2736 36.9115 30.1942 36.4736 29.6387 35.6773L29.1824 35.0402V21.8218C29.1824 7.46856 29.2022 7.88661 28.0713 6.15467C26.9206 4.42273 23.7859 3.36765 21.3456 3.90514ZM23.8653 4.44264C23.8058 4.54218 23.9248 4.56209 24.1232 4.48246C24.4406 4.36301 25.6112 4.72134 25.6112 4.96023C25.6112 5.01995 25.512 5.19912 25.4128 5.35838C25.2541 5.61718 25.1946 5.57736 25.0954 5.19912C25.016 4.96023 24.8771 4.76116 24.7779 4.76116C24.6787 4.76116 24.6589 4.84079 24.7184 4.96023C24.7978 5.07968 24.6787 5.09959 24.3613 4.98014C23.7859 4.76116 20.8496 4.78107 20.8496 5.01995C20.8496 5.09959 20.7703 5.1394 20.6711 5.07968C20.5719 5.00005 20.4528 5.05977 20.4131 5.17921C20.3735 5.31857 20.1552 5.35838 19.8576 5.25884C19.4013 5.11949 19.4212 5.09959 20.0759 4.82088C21.1869 4.3232 24.1232 4.04449 23.8653 4.44264ZM26.2858 5.3982C26.2064 5.51764 26.2461 5.55745 26.3651 5.47783C26.4841 5.4181 26.7024 5.47783 26.8611 5.63708C27.0198 5.79634 27.2182 5.87597 27.2976 5.79634C27.3968 5.71671 27.3968 5.81625 27.3373 6.01532C27.2579 6.2144 27.2777 6.33384 27.3968 6.25421C27.6349 6.11486 28.5872 7.74726 28.607 8.36439C28.607 8.62319 28.6665 14.7945 28.7062 22.0806C28.8054 34.881 28.8253 35.3189 29.2022 35.8564C29.4205 36.1551 29.5197 36.4139 29.4205 36.4139C29.3014 36.4139 29.1824 36.2745 29.103 36.1152C28.984 35.7967 27.7936 35.6773 27.7936 35.9958C27.7936 36.0953 27.6547 36.2148 27.496 36.2944C27.2579 36.374 27.2381 36.3342 27.3968 36.0356C27.496 35.8166 27.6944 35.6176 27.8134 35.5777C28.1309 35.4782 28.111 9.49911 27.7936 8.30467C27.4365 7.0306 27.0198 6.43338 25.9088 5.63708C25.5715 5.3982 25.5517 5.31857 25.8096 5.15931C26.1469 4.94033 26.4643 5.09959 26.2858 5.3982ZM28.8649 36.6926C29.0435 36.9514 29.0038 37.0907 28.7261 37.3097C28.5078 37.449 28.2301 37.5287 28.0912 37.4888C27.6745 37.3296 27.5952 36.6328 27.9523 36.4139C28.3689 36.175 28.607 36.2347 28.8649 36.6926ZM29.3014 37.6879C29.1427 37.9467 28.8253 38.2055 28.607 38.2652C28.0118 38.4245 28.0912 38.0662 28.7459 37.7676C29.0633 37.6083 29.3213 37.3097 29.3609 37.0111C29.4205 36.6328 29.4601 36.593 29.5395 36.8717C29.5792 37.0708 29.48 37.4291 29.3014 37.6879ZM27.3968 37.2301C27.3968 37.3495 27.3174 37.3694 27.1984 37.3097C27.0992 37.25 27 37.0907 27 36.9912C27 36.8717 27.0992 36.8518 27.1984 36.9115C27.3174 36.9713 27.3968 37.1305 27.3968 37.2301ZM27.8928 37.7875C28.0713 38.106 27.7142 38.1856 27.4365 37.887C27.2381 37.6481 27.2381 37.6083 27.4761 37.6083C27.6349 37.6083 27.8134 37.6879 27.8928 37.7875Z" fill="#225DD9"/>
<path d="M12.2191 6.09491C11.5247 6.19444 8.90584 7.54814 8.80664 7.86666C8.76696 7.9662 9.02488 8.20509 9.382 8.38425C9.99703 8.66296 10.0962 8.64305 11.0287 8.22499C13.1516 7.22963 15.3538 7.18981 17.1791 8.10555C18.3695 8.68286 21.1272 10.4546 21.6827 10.9722L22.2382 11.4898V14.2171C22.2382 16.8847 22.2184 16.9643 21.7422 17.4222C20.3336 18.7162 22.0398 21.0254 23.8453 20.2888C24.8968 19.831 25.1547 18.318 24.3214 17.3426C23.8453 16.7652 23.8254 16.6458 23.8254 13.9782C23.8254 10.6139 23.6667 10.2157 21.8811 9.04119C20.0757 7.86666 18.3496 6.91111 17.2981 6.47315C16.3855 6.11481 13.5285 5.89583 12.2191 6.09491ZM16.8815 6.83148C17.2584 6.97083 17.556 7.1699 17.5362 7.28935C17.5163 7.40879 17.6552 7.46851 17.8536 7.40879C18.052 7.34907 18.2901 7.4287 18.3695 7.58796C18.4687 7.72731 18.4687 7.78703 18.3695 7.7074C18.2901 7.62777 18.0917 7.64768 17.9528 7.76712C17.6354 8.02592 17.2783 7.82685 17.2783 7.38888C17.2783 7.15 17.2187 7.13009 17.1195 7.28935C17.0005 7.48842 16.7624 7.46851 16.0879 7.26944C15.1356 6.99074 12.6953 6.75185 12.8143 6.95092C12.854 7.01064 12.477 7.18981 11.9612 7.32916C11.4453 7.48842 10.9295 7.6875 10.7906 7.78703C10.6517 7.88657 10.4335 7.90648 10.3145 7.82685C10.1558 7.74722 10.1359 7.76712 10.2153 7.90648C10.2946 8.04583 10.2351 8.14536 10.0566 8.14536C8.94552 8.14536 10.3542 7.20972 12.3183 6.63241C13.3301 6.33379 15.7506 6.45324 16.8815 6.83148ZM20.1154 8.5037C21.4248 9.16064 21.7819 9.41943 21.1074 9.22036C20.909 9.16064 21.2066 9.35971 21.7621 9.61851C23.012 10.2356 23.2104 10.6935 23.3294 13.3213C23.389 14.5555 23.3493 15.0134 23.2501 14.6153L23.0715 14.018L23.0517 14.7546C23.0517 15.1528 23.131 15.5509 23.2302 15.6106C23.3493 15.6903 23.389 15.9092 23.3294 16.1282C23.2501 16.3472 23.3691 16.7254 23.5873 17.0639C23.7857 17.3625 24.0437 17.7407 24.123 17.9C24.2817 18.1588 24.2619 18.1588 23.9445 17.9C23.5873 17.6213 22.1986 17.462 22.3573 17.7208C22.397 17.8004 22.2978 17.9597 22.139 18.099C21.6232 18.537 21.7819 17.9199 22.3176 17.4421C22.7938 17.0041 22.7938 16.9046 22.7739 14.456C22.7342 12.8435 22.7938 11.9278 22.9326 11.9278C23.0517 11.9278 23.0318 11.868 22.9128 11.7685C22.7938 11.6889 22.635 11.45 22.5557 11.231C22.4962 11.012 21.9803 10.5342 21.4446 10.156C20.909 9.79767 20.5122 9.41943 20.5717 9.3199C20.6312 9.22036 20.6114 9.14073 20.5122 9.16064C20.4328 9.18055 20.2939 9.16064 20.2146 9.14073C19.9567 9.0611 19.6789 9.00138 19.4607 8.96157C19.3615 8.96157 19.2623 8.80231 19.2623 8.64305C19.2623 8.48379 19.2027 8.36434 19.1234 8.38425C18.8655 8.44397 18.0719 8.12546 18.0719 7.9662C18.0719 7.66759 18.7663 7.84675 20.1154 8.5037ZM23.8254 18.4574C23.8254 18.9152 23.2699 19.3333 22.8731 19.2139C22.3573 19.0347 22.2978 18.3977 22.7739 18.1189C23.131 17.9398 23.8254 18.1588 23.8254 18.4574ZM22.2382 18.975C22.2382 19.0347 22.1589 19.1342 22.0398 19.1939C21.9406 19.2537 21.8414 19.2139 21.8414 19.1143C21.8414 18.9949 21.9406 18.8953 22.0398 18.8953C22.1589 18.8953 22.2382 18.9351 22.2382 18.975ZM24.2222 19.2935C24.2222 19.393 24.1825 19.4926 24.1429 19.4926C24.0833 19.4926 23.9841 19.393 23.9246 19.2935C23.8651 19.174 23.9048 19.0944 24.004 19.0944C24.123 19.0944 24.2222 19.174 24.2222 19.2935ZM23.4286 19.5921C23.9445 19.4328 23.9445 19.612 23.4286 19.8907C22.9922 20.1296 22.2382 19.8509 22.2382 19.4726C22.2382 19.3532 22.3771 19.3532 22.635 19.4926C22.8731 19.612 23.2302 19.6518 23.4286 19.5921Z" fill="#225DD9"/>
<path d="M33.1506 7.96622C33.8053 7.58798 35.6703 7.44863 36.0472 7.76714C36.1861 7.88659 36.5432 8.00603 36.821 8.06575C37.3182 8.1593 37.8154 8.38715 38.2638 8.70866L38.6099 8.51088C37.0885 7.31347 34.9766 6.70309 33.5673 7.22964C32.734 7.52826 31.6428 8.7426 31.4841 9.57871C31.4245 9.91714 31.365 17.263 31.365 25.9227C31.365 41.4902 31.365 41.6694 30.9682 42.0874C30.7301 42.3263 30.5119 42.8439 30.4524 43.2221C30.3532 43.7995 30.4326 44.0184 30.8889 44.536C31.7221 45.4319 32.6745 45.4717 33.4482 44.6356C34.1029 43.899 34.1228 42.824 33.4879 42.2268L33.0316 41.7888L33.0713 26.0222C33.0911 17.3426 33.1308 10.0366 33.1308 9.77779C33.1506 9.49908 33.3887 9.20047 33.7657 8.96159C34.6087 8.44798 35.9659 8.65652 37.0916 9.37847L38.6099 8.51088C38.3229 8.30994 36.9476 8.73586 36.6821 8.62316C36.1464 8.42409 35.7298 8.1852 35.7298 8.10557C35.7298 7.86668 34.0831 8.14538 33.6069 8.4639C32.4959 9.18056 32.5356 8.62316 32.5157 25.7236C32.4959 37.5485 32.5356 41.5897 32.7141 41.9282C32.9324 42.3263 32.9125 42.3462 32.3967 42.2865C32.0594 42.2467 31.6825 42.386 31.3849 42.6647C30.9484 43.0629 30.9285 43.0629 31.1269 42.6846C31.246 42.4657 31.4841 42.1073 31.6428 41.8884C31.9007 41.5499 31.9801 41.53 32.1586 41.7888C32.2777 41.968 32.357 41.9879 32.357 41.8485C32.357 41.7291 32.2777 41.5698 32.1785 41.5101C31.9205 41.3509 31.861 37.5286 31.861 22.6778C31.8809 10.594 31.9007 9.59862 32.2181 8.98149C32.4165 8.62316 32.8332 8.16529 33.1506 7.96622ZM31.5634 44.337C31.5634 44.4962 31.5436 44.5958 31.5039 44.5559C31.4841 44.5161 31.3253 44.3171 31.1865 44.118C30.9484 43.8194 30.9484 43.7796 31.246 43.899C31.4245 43.9587 31.5634 44.1578 31.5634 44.337ZM33.349 43.7397C33.349 43.8393 33.1903 44.118 32.9721 44.337C32.5951 44.7749 31.7618 44.9342 31.7618 44.5758C31.7618 44.3967 32.1785 44.2971 32.5951 44.3569C32.6745 44.3569 32.8332 44.1976 32.9522 43.9786C33.1705 43.5606 33.349 43.461 33.349 43.7397ZM32.8332 43.0828C32.9324 43.3615 32.4761 43.9786 32.1586 43.9786C32.0594 43.9786 31.8412 43.8393 31.6626 43.6601C31.4245 43.4212 31.4047 43.2819 31.5833 43.0629C31.8809 42.7046 32.6745 42.7046 32.8332 43.0828Z" fill="#225DD9"/>
<path d="M38.6835 9.09393L37.5676 9.72717C37.7466 9.87617 37.9155 10.0394 38.0707 10.2158C39.142 11.4302 39.1023 11.6094 37.6143 12.983C36.5033 13.9982 36.166 14.1973 35.6502 14.1575C34.936 14.0978 34.0233 14.8144 33.8249 15.5908C33.7059 16.0885 34.1027 17.064 34.6384 17.5019C35.7494 18.4376 37.5151 17.3427 37.5151 15.7302C37.5151 15.5709 38.15 14.7746 38.9238 13.9982C40.1539 12.764 40.3523 12.4654 40.4316 11.7089C40.511 10.9524 40.4316 10.6936 39.8563 9.8376C39.6838 9.57672 39.4816 9.3279 39.2562 9.09393H38.6835C39.1002 9.52467 39.6254 10.1831 39.8166 10.7334C40.1737 11.7288 39.9951 12.1668 38.8047 13.4209C37.2771 14.9936 36.92 15.5112 36.92 16.1084C36.92 16.8649 36.3248 17.3427 35.4915 17.263C34.5193 17.1436 33.9837 15.8695 34.5987 15.1131C34.8566 14.7945 34.9955 14.7547 35.9676 14.6353C36.2851 14.5955 36.662 14.4561 36.7811 14.3367C37.1184 13.9982 37.3168 14.0779 37.1977 14.4561C37.0985 14.7348 37.1184 14.7547 37.2771 14.5357C37.3961 14.3765 37.4358 14.1177 37.3564 13.9584C37.2969 13.7594 37.3366 13.6996 37.4755 13.7992C37.5945 13.8589 37.7334 13.7394 37.8127 13.5006C37.8921 13.2816 37.9913 13.1422 38.0508 13.2019C38.1103 13.2617 38.4476 12.983 38.8047 12.6047C39.4198 11.9677 39.4396 11.8682 39.2015 11.3904C39.0627 11.1117 38.9635 10.6538 39.0031 10.3552C39.0428 10.0765 39.023 9.95704 38.9635 10.1163C38.8841 10.2955 38.6857 10.1959 38.2294 9.69825C38.1832 9.64641 38.7417 9.14859 38.6835 9.09393Z" fill="#225DD9"/>
<path d="M8.18714 10.4314L8.60882 11.7905C11.0888 13.0645 12.4379 13.9007 12.6562 14.3386C12.795 14.5974 12.9141 15.5331 12.9141 16.3891C12.9141 17.7229 12.8546 18.0414 12.5173 18.3997C11.8824 19.0766 11.7832 20.1516 12.299 20.8682C12.6958 21.4057 12.8546 21.4854 13.7077 21.4854C14.5409 21.4854 14.7393 21.4057 15.1758 20.8682C15.9099 19.9923 15.8107 19.0965 14.8584 18.2803C14.5608 18.0016 14.5013 17.6631 14.5013 16.2298C14.5013 14.259 14.2433 13.4428 13.3505 12.6863C12.5768 12.0493 8.60882 9.81964 7.9541 9.68029L8.18714 10.4314C8.20163 10.4275 8.21656 10.4226 8.23186 10.4169C8.56914 10.2775 9.79921 11.0141 9.58097 11.2331C9.50161 11.3326 9.56113 11.3326 9.68017 11.253C10.0373 11.0539 11.1682 11.7507 11.0293 12.109C10.9301 12.3479 10.9698 12.3479 11.2674 12.109C11.5451 11.8701 11.5848 11.8701 11.4261 12.109C11.307 12.328 11.3467 12.3678 11.6046 12.2682C11.803 12.1886 11.9022 12.2085 11.8229 12.328C11.7634 12.4474 11.8824 12.527 12.1006 12.527C12.3189 12.527 12.6165 12.6664 12.795 12.8257C12.9538 12.9849 13.172 13.1243 13.291 13.1243C13.4101 13.1243 13.4299 13.2636 13.3704 13.4627C13.291 13.6618 13.3307 13.7414 13.4696 13.6419C13.787 13.4428 13.9259 14.1196 13.9656 16.0706C14.0053 17.6631 14.0648 17.902 14.5608 18.559C15.1361 19.3155 15.275 20.2909 14.8385 20.6492C14.1838 21.2066 12.7157 21.1469 12.7157 20.5696C12.7157 20.4104 12.6363 20.2909 12.5173 20.2909C12.1998 20.2909 12.2792 19.5543 12.6363 19.2159C12.795 19.0367 12.8744 18.8974 12.7752 18.8974C12.6958 18.8974 12.7752 18.758 12.9736 18.6187C13.6878 18.0613 13.5093 14.3585 12.7157 13.7016C12.5173 13.5224 12.3982 13.3233 12.4578 13.2437C12.5371 13.184 12.4379 13.1243 12.2594 13.1243C12.061 13.1243 11.9221 13.0247 11.9221 12.8854C11.9221 12.7659 11.8626 12.7062 11.803 12.7858C11.7435 12.8456 10.9896 12.527 10.1563 12.0891C9.49509 11.7257 8.57635 10.6407 8.18714 10.4314Z" fill="#225DD9"/>
<path d="M7.29254 10.2518L6.16825 10.0773C4.4025 10.7542 2.29947 12.2074 1.48604 13.3023C-0.00195215 15.3329 -0.39875 17.9805 0.414685 20.4092C0.851163 21.7032 1.7638 22.9574 1.94236 22.5194C2.00188 22.3801 2.22011 22.1014 2.41851 21.9023C2.79547 21.544 2.79547 21.524 2.25979 20.3694C1.20828 18.1398 1.64476 15.5518 3.31131 13.8398C3.98586 13.163 5.53337 12.1477 6.72377 11.6301L7.57688 11.2519L7.29254 10.2518C7.24744 10.268 7.13171 10.9926 7.08088 11.013C6.74361 11.1523 6.34681 11.2319 6.22777 11.1921C6.08889 11.1324 5.96985 11.1921 5.96985 11.3116C5.96985 11.431 5.51353 11.7495 4.93818 12.0481C3.86682 12.6056 2.16059 14.2579 1.7638 15.1537C1.62492 15.4523 1.4662 15.6514 1.38684 15.6116C1.32732 15.5518 1.30748 15.7509 1.367 16.0097C1.40668 16.2884 1.367 16.5074 1.24796 16.5074C0.871002 16.5074 1.12892 18.956 1.64476 20.2301C1.98204 21.0463 2.08123 21.524 1.94236 21.6634C1.68444 21.9222 1.12892 21.3847 1.32732 21.0662C1.40668 20.9268 1.38684 20.887 1.2678 20.9467C0.573404 21.3648 0.295646 16.7065 0.910682 15.1537C1.08924 14.6958 1.32732 14.3176 1.40668 14.3176C1.48604 14.3176 1.6646 14.0389 1.80348 13.7005C1.9622 13.3421 2.16059 13.143 2.31931 13.2028C2.47803 13.2625 2.57723 13.2028 2.53755 13.0634C2.51771 12.9241 2.59707 12.8444 2.73595 12.8643C2.87483 12.9042 2.93435 12.7847 2.87483 12.6255C2.77563 12.4065 2.89467 12.3268 3.27163 12.3268C3.56923 12.3268 3.76762 12.2273 3.74778 12.088C3.68827 11.8292 5.11674 10.9333 5.63257 10.9333C5.85081 10.9333 5.93017 10.8537 5.85081 10.6944C5.75161 10.5551 5.81113 10.5153 5.98969 10.575C6.12437 10.6257 7.04186 10.3609 7.29254 10.2518Z" fill="#225DD9"/>
<path d="M41.9993 12.5651C41.6025 13.5206 41.6025 13.6401 42.0588 13.9586C42.4159 14.2174 43.269 15.7104 43.269 16.0688C43.269 16.1882 42.5945 16.9248 41.781 17.7211C40.0351 19.4132 39.8962 19.7715 39.8962 22.5387C39.8962 24.0516 39.8367 24.5095 39.5986 24.5891C39.2217 24.7484 38.8646 25.903 39.0233 26.54C39.2217 27.3363 40.174 27.9336 41.047 27.7942C41.9794 27.6349 42.4754 27.0974 42.6143 26.1419C42.6937 25.465 42.6341 25.266 42.1977 24.8678C41.7215 24.39 41.6818 24.2706 41.6818 22.2799V20.1697L43.0706 18.7961C44.7769 17.084 44.9951 16.5266 44.5586 14.9938C44.3205 14.1577 43.9833 13.5804 43.269 12.8438L42.2969 11.8285L41.9993 12.5651ZM43.1301 13.2817C43.5666 13.7197 43.6063 13.8989 43.4079 14.0979C43.2095 14.297 43.2293 14.3169 43.4873 14.2174C43.7253 14.1178 43.8642 14.2373 43.9634 14.6553C44.2213 15.6507 44.2412 16.1882 44.0031 16.3475C43.8245 16.4669 43.8245 16.5067 44.0229 16.5067C44.2015 16.5067 44.2015 16.6461 43.9634 17.104C43.7849 17.4225 43.5666 17.7012 43.4674 17.7012C43.0905 17.7012 43.0706 17.2831 43.4476 16.5465C43.8047 15.8697 43.8047 15.7104 43.5666 15.372C43.4079 15.153 43.3285 14.9141 43.4079 14.8544C43.4674 14.7748 43.3682 14.6753 43.1897 14.5956C43.0111 14.5359 42.8722 14.3567 42.8722 14.1975C42.8722 14.0581 42.6738 13.7993 42.4357 13.6401C42.0191 13.3415 42.0191 13.3216 42.3762 13.3016C42.5945 13.3016 42.654 13.2419 42.5349 13.1822C42.2572 13.0827 42.1778 12.7243 42.4357 12.7243C42.5349 12.7243 42.8325 12.9831 43.1301 13.2817ZM42.8127 18.3979C41.4041 19.672 41.285 19.9109 41.1858 21.9414C41.0668 23.8525 41.166 24.3303 41.7612 24.9275C42.0588 25.2062 42.1381 25.6243 42.0985 26.4206C42.0786 26.7391 41.8802 26.9581 41.3842 27.1771C40.7494 27.4359 40.6105 27.4359 40.0946 27.1373C39.1622 26.5799 39.1622 25.7039 40.1145 24.6289C40.5311 24.1711 40.551 23.972 40.5113 21.9613L40.4716 19.7914L41.6025 18.5174C42.654 17.3627 42.773 17.2831 43.0111 17.6215C43.2293 17.9401 43.2095 18.0396 42.8127 18.3979Z" fill="#225DD9"/>
<path d="M14.3621 27.7747C13.6979 28.3523 12.1332 29.2384 11.0406 29.7035L10.791 30.2969C12.0969 29.8498 13.6773 28.9057 16.2866 27.1177C17.4968 26.2816 18.1317 25.6844 18.5682 24.9876C19.1435 24.0122 19.1634 23.9524 19.2229 20.9066C19.3023 18.02 19.3221 17.7812 19.7784 17.2038C20.5323 16.2085 20.3141 14.7951 19.3221 14.3372C17.4373 13.4613 15.87 15.5117 17.1595 17.1839C17.596 17.7613 17.6159 17.9802 17.6357 20.4886C17.6357 23.614 17.4968 24.1117 16.2667 25.1071C15.2929 25.9001 13.1243 27.3379 11.675 28.195L10.791 30.2969C11.371 30.0086 12.4817 28.352 12.5369 28.352C12.5964 28.352 12.7749 28.2126 12.9535 28.0334C13.132 27.8742 13.9058 27.3367 14.6994 26.8589C15.493 26.3811 16.2271 25.8436 16.3461 25.6446C16.4651 25.4654 16.6834 25.3659 16.8421 25.4256C17.0405 25.4853 17.1 25.4455 17.0008 25.3061C16.9215 25.1867 17.0405 24.9677 17.2786 24.8284C17.4968 24.689 17.6754 24.5098 17.6754 24.4302C17.6754 24.3506 17.7746 24.052 17.8738 23.7534C18.1317 23.0964 18.2507 17.5025 18.0127 17.5025C17.9135 17.5025 17.9135 17.4029 17.973 17.3034C18.0325 17.1839 17.9928 17.1043 17.8936 17.1043C17.7746 17.1043 17.6754 17.0247 17.6754 16.9451C17.6754 16.8455 17.9531 16.8057 18.2706 16.8654C18.6674 16.9251 19.0047 16.8256 19.2626 16.6066C19.4808 16.4076 19.6594 16.3478 19.6594 16.4673C19.6594 16.5867 19.461 16.8256 19.2229 16.9849C18.9848 17.164 18.8459 17.3034 18.9253 17.3034C19.0245 17.3034 19.0245 17.383 18.965 17.5025C18.9055 17.602 18.8261 19.0552 18.8063 20.7274C18.7467 23.6737 18.7269 23.8131 18.1912 24.7089C17.8936 25.2464 17.596 25.6645 17.5365 25.6645C17.4968 25.6645 17.5167 25.545 17.596 25.4057C17.6754 25.2862 17.4175 25.5052 17.0207 25.9034C16.6437 26.3214 16.1675 26.6598 15.989 26.6598C15.8104 26.6598 15.7112 26.7395 15.7906 26.839C15.8898 26.9983 15.493 27.2172 15.0565 27.2571C14.9772 27.277 14.6597 27.4959 14.3621 27.7747ZM18.965 15.9099C18.965 16.308 18.8459 16.4275 18.4491 16.4673C18.0722 16.5071 17.8936 16.4275 17.8143 16.1288C17.6952 15.6511 18.0523 15.2728 18.5682 15.3525C18.8459 15.3923 18.965 15.5714 18.965 15.9099ZM19.58 15.2131C19.8974 15.6312 19.9371 16.1089 19.6792 16.1089C19.58 16.1089 19.461 15.8302 19.3816 15.4918C19.3221 15.1534 19.2031 14.9344 19.1039 14.9941C19.0245 15.0339 18.8261 14.9941 18.6674 14.8946C18.4491 14.7552 18.4888 14.7353 18.8459 14.7751C19.1039 14.815 19.4411 15.014 19.58 15.2131ZM18.2706 14.6955C18.2706 14.7951 18.092 14.9543 17.8738 15.014C17.6555 15.0937 17.5167 15.233 17.5762 15.3326C17.6555 15.4321 17.6159 15.5117 17.5365 15.5117C17.4373 15.5117 17.3579 15.6909 17.3381 15.9099C17.3183 16.1288 17.3976 16.308 17.4968 16.308C17.6159 16.308 17.6357 16.4076 17.5563 16.527C17.477 16.6863 17.3778 16.6663 17.2587 16.4872C16.9611 15.9895 17.0603 15.5117 17.596 15.014C18.1912 14.4765 18.2706 14.4367 18.2706 14.6955Z" fill="#225DD9"/>
<path d="M7.29929 16.7864C6.60489 15.7313 6.62473 14.7559 7.33897 14.3975C7.91432 14.0989 8.1524 14.1387 8.80712 14.5767C9.1444 14.7957 9.34279 15.1142 9.34279 15.4128C9.34279 16.0698 8.92616 16.9457 8.66824 16.8461C8.45 16.7665 8.33096 17.8017 8.3508 19.6332C8.37064 21.1461 7.97384 21.604 5.33514 23.0572C4.50186 23.535 4.30346 23.9929 4.36298 25.3466C4.4225 26.6207 5.0177 27.9146 5.83114 28.5119C6.25729 28.8487 7.33127 29.4068 7.8555 29.6466L8.75921 29.0284C7.86247 28.9788 6.93275 28.7498 6.38665 28.3924C5.2161 27.616 4.44234 25.5855 4.83914 24.3711C4.9185 24.1521 5.57322 23.5947 6.32713 23.1369C7.06121 22.679 7.8548 22.1017 8.09288 21.8429C8.6484 21.2258 8.946 20.0711 8.946 18.4785C8.946 17.523 9.02536 17.085 9.26343 16.9059C9.77927 16.448 9.95783 15.9304 9.81895 15.1938C9.60071 13.9596 7.97384 13.3026 7.04137 14.079C6.04937 14.8753 6.02953 16.1494 6.96201 17.0054C7.27945 17.304 7.33897 17.5827 7.27945 18.817C7.21993 20.529 7.10089 20.6883 5.19626 21.9623C3.37099 23.1767 3.13291 23.4753 3.03371 24.829C2.86939 27.1973 4.31352 29.2947 6.44297 30.1865L7.29267 30.0922L7.8555 29.6466C7.78435 29.623 6.81361 29.894 6.80329 29.8656C6.76361 29.7461 6.56521 29.6466 6.36681 29.6466C5.9105 29.6466 5.67242 29.3281 6.00969 29.1688C6.14857 29.1091 6.06921 29.1091 5.85098 29.1489C4.87882 29.3878 3.27179 26.3818 3.45035 24.6896C3.50987 24.1322 3.68843 23.6943 3.90667 23.535C4.12491 23.3758 4.48202 23.0771 4.73994 22.8781C4.97802 22.6591 5.25578 22.4799 5.37482 22.4799C5.47402 22.4799 5.75178 22.2808 5.97001 22.0221C6.20809 21.7832 6.46601 21.5841 6.54537 21.5841C6.62473 21.5841 6.82313 21.4447 6.98185 21.2855C7.53737 20.6883 7.81512 19.892 7.83496 18.7772C7.8548 17.8216 7.77544 17.4832 7.29929 16.7864Z" fill="#225DD9"/>
<path d="M45.4907 18.5969C45.2527 18.8756 45.0543 19.1543 45.0543 19.2339C45.0543 19.2936 45.2923 19.9506 45.5899 20.6672C46.0463 21.7621 46.1256 22.2797 46.1455 23.8723C46.1455 25.664 46.1058 25.8431 45.4511 27.0575C45.0741 27.7742 44.2011 28.9288 43.5067 29.6255L42.2568 30.8996L42.5743 31.5565C42.7528 31.9348 42.9512 32.2334 43.0306 32.2334C43.3877 32.2334 46.0661 29.3468 46.6414 28.3714C47.9509 26.0621 48.2485 24.4894 47.812 22.1603C47.5938 20.926 46.3835 18.0992 46.0859 18.0992C46.0066 18.0992 45.7288 18.3182 45.4907 18.5969ZM46.6414 19.9307C48.1294 23.1158 47.7128 26.3209 45.3915 29.3866C44.6575 30.3621 44.2408 30.7802 44.5781 30.1829C44.6575 30.0635 44.3995 30.3024 44.0027 30.7403C43.4472 31.3774 43.2488 31.4968 43.0504 31.2778C42.852 31.0987 42.852 31.039 43.0306 31.039C43.1695 31.039 43.2488 30.9394 43.229 30.8001C43.1893 30.6806 43.3877 30.4616 43.6655 30.3024C43.9432 30.163 44.0821 30.0436 43.9829 30.0436C43.8837 30.0436 43.9234 29.9042 44.0623 29.745C44.2011 29.5857 44.3995 29.5061 44.5186 29.5857C44.6376 29.6454 44.6575 29.6056 44.5781 29.4862C44.4987 29.3468 44.6376 29.0482 44.8757 28.8093L45.2923 28.3515L45.1733 28.8491C45.0543 29.2672 45.0741 29.2871 45.2527 28.9885C45.3717 28.8093 45.4114 28.5505 45.3519 28.451C45.2923 28.3316 45.4114 27.9732 45.6495 27.6547C45.8875 27.3163 46.0066 27.0575 45.9272 27.0575C45.8677 27.0575 45.9074 26.938 46.0264 26.7788C46.9192 25.7038 46.939 22.5186 46.0264 20.5478C45.6296 19.6719 45.5503 19.0547 45.7883 18.8357C46.0066 18.5969 46.0463 18.6566 46.6414 19.9307Z" fill="#225DD9"/>
<path d="M35.4122 20.5283C34.4599 20.9861 34.2813 22.3996 35.0352 23.3949C35.4916 23.9921 35.5312 24.2111 35.5312 26.2417C35.5312 27.4361 35.6304 28.6704 35.7495 28.9889C35.8487 29.2875 36.801 30.3227 37.8327 31.2981C38.8643 32.2736 39.6976 33.2092 39.6976 33.3685C39.6976 33.8264 38.5667 35.5384 37.8922 36.0958C37.5747 36.3546 36.7415 36.8523 36.0272 37.1907C35.313 37.5291 34.7376 37.8676 34.7178 37.9472C34.698 38.0467 34.6781 38.3653 34.6583 38.7037C34.6384 39.2412 34.698 39.3009 35.1344 39.2213C35.4122 39.1815 36.2653 38.8629 37.0192 38.5046C39.3405 37.3898 41.007 35.3393 41.2451 33.269L41.3443 32.3731L39.4595 30.5616C38.4279 29.5662 37.4756 28.5509 37.3367 28.312C37.2176 28.0732 37.1184 26.9982 37.1184 25.8833C37.1184 24.032 37.1581 23.8528 37.6144 23.3949C37.9715 23.0366 38.1104 22.6783 38.1104 22.1009C38.1104 20.7472 36.6621 19.9111 35.4122 20.5283ZM37.6144 21.9417C37.6343 22.2403 37.4359 22.7778 37.178 23.156C36.7812 23.7732 36.7216 24.0917 36.7216 25.7042C36.7216 28.0134 36.8804 29.0486 37.2375 29.0486C37.3962 29.0486 37.5152 29.1083 37.5152 29.188C37.5152 29.3472 37.8922 29.7653 39.6579 31.4375C40.6103 32.3731 40.9674 32.831 40.4912 32.5324C40.1936 32.3532 40.2531 32.6518 40.5507 32.9106C41.3046 33.5278 39.5984 36.4342 37.8723 37.5291C37.4359 37.8078 36.9597 38.0666 36.8407 38.0865C36.7216 38.1065 36.424 38.2259 36.186 38.3653C35.9479 38.5046 35.6106 38.6041 35.432 38.6041C34.9559 38.6041 35.194 38.1264 35.69 38.0467C35.9479 38.0069 36.0868 37.8875 36.0074 37.768C35.9082 37.6287 35.9876 37.5889 36.186 37.6685C36.3645 37.7282 36.5232 37.7083 36.5629 37.6287C36.6026 37.5291 36.9796 37.2703 37.416 37.0315C37.8525 36.8125 38.1104 36.6134 38.0112 36.6134C37.912 36.6134 38.0311 36.4741 38.289 36.2949C38.5469 36.1157 38.9834 35.5782 39.3008 35.1004C39.5984 34.6227 39.896 34.2842 39.9357 34.344C39.9952 34.4037 40.0944 34.1648 40.1341 33.8264C40.1936 33.4083 40.1143 33.05 39.8563 32.7116C39.6381 32.4528 39.5389 32.1343 39.6183 32.0148C39.6976 31.8755 39.6778 31.8356 39.5389 31.9153C39.4199 31.975 38.7255 31.4574 37.9715 30.7407C37.2375 30.0241 36.5629 29.4468 36.4637 29.4468C36.3645 29.4468 36.3447 29.3074 36.4042 29.1282C36.4637 28.969 36.4439 28.8894 36.3248 28.9491C36.0669 29.1083 36.0868 29.3273 36.0074 26.4009C35.9479 24.231 35.8685 23.7533 35.5312 23.2755C34.9757 22.4991 35.0352 22.2602 35.5908 22.9171C35.9479 23.3352 36.1066 23.4148 36.2852 23.2357C36.4637 23.0565 36.5232 23.0565 36.5232 23.2357C36.5232 23.375 36.682 23.3153 36.9002 23.0963C37.3168 22.6783 37.5152 21.6232 37.2176 21.5236C37.0986 21.4838 36.8804 21.3445 36.7216 21.1852C36.4042 20.9065 35.69 21.0658 35.432 21.4639C35.3725 21.5834 35.2138 21.6829 35.1146 21.6829C34.817 21.6829 35.432 21.1056 35.9677 20.9065C36.6423 20.6477 37.5946 21.225 37.6144 21.9417ZM36.8804 22.1009C36.9399 22.5389 36.8407 22.6384 36.424 22.7181C36.0074 22.7977 35.8685 22.738 35.7296 22.3996C35.5312 21.8621 35.8487 21.444 36.4042 21.5236C36.682 21.5634 36.8407 21.7625 36.8804 22.1009Z" fill="#225DD9"/>
<path d="M23.7067 23.0764C22.5956 23.5343 22.2782 25.1269 23.1313 25.9829C23.6075 26.4607 23.6273 26.5602 23.6273 29.1482C23.6273 31.6366 23.6075 31.8357 23.1908 32.2935C22.5163 33.0102 19.5998 34.762 18.6276 35.0208C16.4056 35.638 13.3701 34.2843 12.1797 32.1542C12.021 31.8755 11.8424 31.8357 11.2671 31.9352C10.3743 32.1144 10.3544 32.3931 11.1083 33.488C12.5963 35.6579 14.9573 36.8125 17.8341 36.8125C19.3617 36.8125 19.7387 36.6731 22.1591 35.0607C25.0359 33.1695 25.0954 33.05 25.1748 29.4269C25.2343 26.6199 25.2542 26.4806 25.7303 26.0426C27.0993 24.7686 25.4327 22.3399 23.7067 23.0764ZM25.5319 24.032C25.889 24.4898 25.7502 25.4653 25.2938 25.8037C25.0954 25.963 24.9367 26.182 24.9764 26.2815C24.9962 26.381 24.9169 26.5204 24.778 26.5602C24.5796 26.6398 24.5399 27.3366 24.5796 29.407C24.6193 31.5769 24.5796 32.2736 24.3415 32.7315C24.163 33.0699 24.0241 33.2292 24.0241 33.1296C24.0241 33.0102 23.9249 33.0699 23.8257 33.269C23.5876 33.6671 21.7227 34.8417 21.5639 34.6824C21.5044 34.6028 21.4449 34.6625 21.4449 34.7819C21.4449 34.9014 20.9489 35.2995 20.314 35.6977C19.2625 36.3546 19.1236 36.3944 17.8539 36.3148C15.5326 36.1556 13.5685 35.5982 13.8462 35.1602C13.9256 35.0407 13.8462 35.0009 13.6677 35.0607C13.3502 35.2 11.7829 33.8861 11.6837 33.4083C11.644 33.2491 11.5051 33.0301 11.3464 32.9107C11.1083 32.7315 11.148 32.6718 11.5845 32.6718C11.8821 32.6718 12.1202 32.7514 12.1202 32.831C12.1202 33.1097 13.9454 34.8218 14.124 34.7023C14.2232 34.6426 14.3621 34.7222 14.4216 34.8815C14.5605 35.2796 16.8619 35.6977 18.1912 35.5583C19.1435 35.4588 20.8497 34.7421 21.0084 34.3639C21.0481 34.2843 21.2068 34.2245 21.3656 34.2245C21.5243 34.2245 21.6433 34.1449 21.6433 34.0454C21.6433 33.9458 21.9211 33.7667 22.2385 33.6273C22.5758 33.488 22.8337 33.3088 22.8337 33.2292C22.8337 33.1695 23.0321 32.9903 23.29 32.8509C23.9844 32.4727 24.2225 31.5171 24.2225 29.2278C24.2027 26.7792 24.0638 25.8635 23.7265 25.8635C23.6075 25.8635 23.3892 25.6246 23.2503 25.3459C23.0916 24.9875 23.0916 24.8482 23.2503 24.9079C23.3694 24.9477 23.4289 25.0473 23.3892 25.1468C23.29 25.3857 24.3415 25.8834 24.6986 25.744C24.8574 25.6843 25.1351 25.4056 25.3335 25.107C25.651 24.6093 25.651 24.5894 25.1351 24.1315C24.4606 23.5542 24.3217 23.5542 23.6868 24.1912C23.0519 24.8283 22.8337 24.669 23.4487 23.9922C23.8455 23.5741 24.0439 23.4945 24.6193 23.594C24.9764 23.6537 25.4129 23.8528 25.5319 24.032ZM25.0161 24.7486C25.0161 24.9079 24.8772 25.1269 24.6986 25.2662C24.4407 25.4852 24.3415 25.4653 24.0043 25.1269C23.6273 24.7486 23.6273 24.7088 23.9249 24.3903C24.163 24.1514 24.3415 24.1315 24.6391 24.2709C24.8375 24.3903 25.0161 24.6093 25.0161 24.7486Z" fill="#225DD9"/>
<path d="M68.7359 33V16.2H70.5119V33H68.7359ZM82.0501 20.28C83.0741 20.28 83.9701 20.48 84.7381 20.88C85.5221 21.264 86.1301 21.856 86.5621 22.656C87.0101 23.456 87.2341 24.464 87.2341 25.68V33H85.5301V25.848C85.5301 24.52 85.1941 23.52 84.5221 22.848C83.8661 22.16 82.9381 21.816 81.7381 21.816C80.8421 21.816 80.0581 22 79.3861 22.368C78.7301 22.72 78.2181 23.24 77.8501 23.928C77.4981 24.6 77.3221 25.416 77.3221 26.376V33H75.6181V20.4H77.2501V23.856L76.9861 23.208C77.3861 22.296 78.0261 21.584 78.9061 21.072C79.7861 20.544 80.8341 20.28 82.0501 20.28ZM95.8208 33.12C94.6368 33.12 93.7248 32.8 93.0848 32.16C92.4448 31.52 92.1248 30.616 92.1248 29.448V17.616H93.8288V29.352C93.8288 30.088 94.0128 30.656 94.3808 31.056C94.7648 31.456 95.3088 31.656 96.0128 31.656C96.7648 31.656 97.3888 31.44 97.8848 31.008L98.4848 32.232C98.1488 32.536 97.7408 32.76 97.2608 32.904C96.7968 33.048 96.3168 33.12 95.8208 33.12ZM89.8688 21.816V20.4H97.6688V21.816H89.8688ZM106.494 33.12C105.182 33.12 104.03 32.848 103.038 32.304C102.046 31.744 101.27 30.984 100.71 30.024C100.15 29.048 99.8695 27.936 99.8695 26.688C99.8695 25.44 100.134 24.336 100.662 23.376C101.206 22.416 101.942 21.664 102.87 21.12C103.814 20.56 104.87 20.28 106.038 20.28C107.222 20.28 108.27 20.552 109.182 21.096C110.11 21.624 110.838 22.376 111.366 23.352C111.894 24.312 112.158 25.424 112.158 26.688C112.158 26.768 112.15 26.856 112.134 26.952C112.134 27.032 112.134 27.12 112.134 27.216H101.166V25.944H111.222L110.55 26.448C110.55 25.536 110.35 24.728 109.95 24.024C109.566 23.304 109.038 22.744 108.366 22.344C107.694 21.944 106.918 21.744 106.038 21.744C105.174 21.744 104.398 21.944 103.71 22.344C103.022 22.744 102.486 23.304 102.102 24.024C101.718 24.744 101.526 25.568 101.526 26.496V26.76C101.526 27.72 101.734 28.568 102.15 29.304C102.582 30.024 103.174 30.592 103.926 31.008C104.694 31.408 105.566 31.608 106.542 31.608C107.31 31.608 108.022 31.472 108.678 31.2C109.35 30.928 109.926 30.512 110.406 29.952L111.366 31.056C110.806 31.728 110.102 32.24 109.254 32.592C108.422 32.944 107.502 33.12 106.494 33.12ZM115.626 33V15.192H117.33V33H115.626ZM122.071 33V15.192H123.775V33H122.071ZM128.517 33V20.4H130.221V33H128.517ZM129.381 17.616C129.029 17.616 128.733 17.496 128.493 17.256C128.253 17.016 128.133 16.728 128.133 16.392C128.133 16.056 128.253 15.776 128.493 15.552C128.733 15.312 129.029 15.192 129.381 15.192C129.733 15.192 130.029 15.304 130.269 15.528C130.509 15.752 130.629 16.032 130.629 16.368C130.629 16.72 130.509 17.016 130.269 17.256C130.045 17.496 129.749 17.616 129.381 17.616Z" fill="#F1F1F1"/>
<path d="M147.61 16.2H149.362V33H147.61V16.2ZM137.098 33H135.322V16.2H137.098V33ZM147.778 25.248H136.906V23.688H147.778V25.248ZM154.485 33V20.4H156.189V33H154.485ZM155.349 17.616C154.997 17.616 154.701 17.496 154.461 17.256C154.221 17.016 154.101 16.728 154.101 16.392C154.101 16.056 154.221 15.776 154.461 15.552C154.701 15.312 154.997 15.192 155.349 15.192C155.701 15.192 155.997 15.304 156.237 15.528C156.477 15.752 156.597 16.032 156.597 16.368C156.597 16.72 156.477 17.016 156.237 17.256C156.013 17.496 155.717 17.616 155.349 17.616ZM160.931 33V20.4H162.563V23.832L162.395 23.232C162.747 22.272 163.339 21.544 164.171 21.048C165.003 20.536 166.035 20.28 167.267 20.28V21.936C167.203 21.936 167.139 21.936 167.075 21.936C167.011 21.92 166.947 21.912 166.883 21.912C165.555 21.912 164.515 22.32 163.763 23.136C163.011 23.936 162.635 25.08 162.635 26.568V33H160.931ZM175.611 33.12C174.299 33.12 173.147 32.848 172.155 32.304C171.163 31.744 170.387 30.984 169.827 30.024C169.267 29.048 168.987 27.936 168.987 26.688C168.987 25.44 169.251 24.336 169.779 23.376C170.323 22.416 171.059 21.664 171.987 21.12C172.931 20.56 173.987 20.28 175.155 20.28C176.339 20.28 177.387 20.552 178.299 21.096C179.227 21.624 179.955 22.376 180.483 23.352C181.011 24.312 181.275 25.424 181.275 26.688C181.275 26.768 181.267 26.856 181.251 26.952C181.251 27.032 181.251 27.12 181.251 27.216H170.283V25.944H180.339L179.667 26.448C179.667 25.536 179.467 24.728 179.067 24.024C178.683 23.304 178.155 22.744 177.483 22.344C176.811 21.944 176.035 21.744 175.155 21.744C174.291 21.744 173.515 21.944 172.827 22.344C172.139 22.744 171.603 23.304 171.219 24.024C170.835 24.744 170.643 25.568 170.643 26.496V26.76C170.643 27.72 170.851 28.568 171.267 29.304C171.699 30.024 172.291 30.592 173.043 31.008C173.811 31.408 174.683 31.608 175.659 31.608C176.427 31.608 177.139 31.472 177.795 31.2C178.467 30.928 179.043 30.512 179.523 29.952L180.483 31.056C179.923 31.728 179.219 32.24 178.371 32.592C177.539 32.944 176.619 33.12 175.611 33.12Z" fill="#2563EB"/>
</svg>
